{"glyphs":{"0":{"ha":624,"x_min":0,"x_max":623,"o":"m 623 461 q 563 277 623 392 q 452 119 534 222 q 180 -54 312 -54 q 152 -52 163 -54 q 0 145 0 -12 q 45 343 0 245 q 94 430 62 381 q 453 741 227 637 q 465 746 457 746 q 476 743 468 746 q 586 673 544 722 q 591 659 591 666 q 579 644 591 650 q 281 446 429 595 q 111 159 156 320 q 100 84 100 119 q 126 5 100 28 q 160 -1 141 -1 q 285 49 214 -1 q 469 292 385 121 q 522 442 496 347 q 532 517 532 477 q 522 593 532 557 q 526 614 514 610 q 557 608 540 618 q 623 505 612 583 l 623 461 z "},"1":{"ha":395,"x_min":-20,"x_max":495,"o":"m 488 674 q 495 659 495 667 q 487 637 495 648 l 486 636 q 95 12 419 541 q 80 -43 75 -22 q 76 -58 84 -52 q 69 -60 73 -60 q -7 14 58 -60 q -20 45 -20 28 q -5 83 -20 61 q 324 598 213 406 l 189 499 q 180 498 184 498 q 163 514 163 498 q 171 530 163 524 q 395 731 342 680 q 412 734 400 742 q 488 674 464 699 z "},"2":{"ha":628,"x_min":-95,"x_max":692,"o":"m 671 629 q 692 568 692 601 q 586 412 692 490 q 0 90 252 213 q 138 99 56 99 q 209 98 172 99 q 293 91 252 91 q 471 144 418 91 q 484 153 477 153 q 495 138 491 153 q 498 94 498 114 q 403 -43 498 -31 q 302 -31 339 -45 q 65 -4 222 -1 q -28 -16 23 -4 q -45 -20 -38 -20 q -71 -1 -62 -20 l -91 76 q -95 90 -95 83 q -76 117 -95 106 q 342 358 129 229 q 621 594 543 480 q 536 616 614 624 q 270 540 442 606 l 292 537 q 305 528 304 536 q 293 511 307 518 l 222 488 q 205 484 213 484 q 178 511 183 484 q 155 602 160 571 q 182 631 152 616 q 528 734 363 719 q 671 629 643 745 z "},"3":{"ha":681,"x_min":-76,"x_max":750,"o":"m 746 632 q 673 484 750 519 q 439 422 513 431 q 605 285 598 408 q 484 72 612 168 q 136 -56 326 -47 q -75 88 -52 -64 q -60 159 -76 126 q -50 164 -54 164 q -39 157 -45 164 l -39 157 q 163 73 14 68 q 557 283 435 83 q 498 343 564 327 q 400 350 457 353 l 331 347 q 319 346 324 346 q 282 380 290 346 l 273 416 q 270 431 270 427 q 294 457 270 453 q 686 578 537 498 q 566 613 673 610 q 323 564 467 614 l 350 560 q 354 556 354 559 q 351 552 354 555 q 269 524 294 529 q 232 628 251 519 q 229 643 229 636 q 263 684 229 673 q 543 738 410 731 q 746 632 731 749 z "},"4":{"ha":602,"x_min":0,"x_max":670,"o":"m 659 435 q 566 313 643 331 q 414 308 450 305 q 214 -3 259 81 q 209 -42 203 -23 q 208 -54 212 -52 q 198 -54 205 -56 q 123 49 119 -15 q 190 175 125 75 l 267 294 q 111 273 199 292 q 81 260 104 271 q 60 256 69 256 q 38 266 43 256 q 4 346 11 315 q 0 353 0 349 q 23 380 0 363 q 557 764 387 636 q 583 761 566 772 q 656 703 627 732 q 670 673 670 689 q 655 633 670 652 q 468 385 517 456 q 509 381 488 381 q 644 441 581 381 q 654 448 650 448 q 659 435 659 448 m 518 652 q 114 384 498 639 q 172 387 127 385 q 331 387 255 389 q 518 652 334 391 z "},"5":{"ha":591,"x_min":-92,"x_max":694,"o":"m 694 760 q 551 605 673 631 q 429 594 499 594 q 350 602 377 594 l 171 415 q 297 435 233 433 q 510 320 490 442 q 524 264 524 294 q 518 231 524 248 q 353 20 477 99 q 94 -53 236 -54 q -60 27 -16 -52 l -84 98 q -80 122 -92 115 q -58 118 -66 130 q 80 61 -11 62 q 323 142 198 58 q 473 307 410 201 q 369 354 460 350 q 156 321 297 358 q 141 317 149 317 q 115 331 129 317 q 77 404 77 370 q 90 439 77 426 q 331 726 248 614 q 339 734 332 734 q 357 727 347 734 q 433 715 387 715 q 636 755 519 715 q 681 780 685 780 q 694 760 693 780 z "},"6":{"ha":551,"x_min":-38,"x_max":548,"o":"m 547 659 q 494 586 548 629 q 213 366 308 463 q 52 61 64 214 q 92 3 53 9 q 320 148 197 -3 q 437 377 430 282 q 416 380 427 380 q 178 245 335 380 q 170 240 174 240 q 156 250 163 240 q 153 255 153 252 q 164 278 153 264 q 416 418 281 399 q 469 406 441 422 q 540 300 544 363 q 429 91 522 198 q 165 -56 300 -56 q 137 -54 148 -56 q -38 140 -38 -4 q 289 595 -38 342 q 418 705 380 666 q 457 772 464 745 q 465 789 454 787 q 484 781 472 793 q 547 659 545 720 z "},"7":{"ha":511,"x_min":-49,"x_max":704,"o":"m 691 708 q 697 700 691 708 q 704 675 704 692 q 685 633 704 652 q 126 91 290 315 q 60 -28 68 11 q 62 -52 64 -35 q 38 -56 57 -61 q -41 27 -34 -38 q 95 250 -49 107 q 618 650 346 496 l 616 652 q 146 562 342 556 q 84 608 95 563 q 69 705 61 659 q 88 724 72 724 q 104 720 96 724 q 256 693 152 689 q 594 720 491 701 q 637 724 617 724 q 691 708 678 724 z "},"8":{"ha":646,"x_min":-38,"x_max":705,"o":"m 701 555 q 582 435 697 486 q 437 387 479 391 q 553 286 514 363 q 568 194 570 254 q 438 3 566 99 q 228 -66 353 -62 q 95 -49 161 -69 q -38 100 -38 -9 q 8 222 -38 163 q 301 399 92 331 q 198 506 209 423 q 262 639 195 571 q 387 728 313 692 q 553 772 472 772 q 617 760 585 772 q 696 700 673 739 q 699 694 699 697 q 682 684 699 681 q 612 688 648 694 q 438 613 519 670 q 326 472 340 544 q 365 419 326 429 q 618 631 618 525 q 610 662 618 648 q 609 666 609 663 q 613 670 609 669 q 624 670 616 673 q 633 666 627 669 q 701 555 705 631 m 449 255 q 372 362 449 330 q 73 109 98 262 q 69 83 69 95 q 157 -15 69 8 q 426 161 340 -15 q 449 255 449 209 z "},"9":{"ha":574,"x_min":-62,"x_max":618,"o":"m 614 651 q 609 636 618 642 q 586 637 598 629 l 585 637 q 574 653 583 639 q 557 665 566 667 q 146 279 244 575 q 152 277 149 275 l 500 543 q 538 547 514 562 q 605 500 581 521 q 613 483 613 495 q 602 450 613 472 q 237 -4 437 126 q 68 -69 155 -58 q -45 -66 -4 -71 q -62 -50 -62 -62 q -52 -37 -62 -38 q 213 102 79 -42 q 479 484 408 311 q 213 233 313 323 q 183 218 202 218 q 160 222 172 218 q 72 286 85 259 q 57 334 57 304 q 137 534 57 418 q 494 772 258 709 q 533 761 510 776 q 606 673 586 727 l 614 651 z "}," ":{"ha":254,"x_min":0,"x_max":0,"o":""},"!":{"ha":363,"x_min":-73,"x_max":363,"o":"m 363 625 q 308 510 363 585 q 213 387 275 469 q 85 176 118 256 q 83 146 80 163 q 83 138 85 141 q 73 141 80 136 q 35 222 37 170 q 72 327 35 259 q 172 487 88 358 q 270 644 199 529 q 279 696 279 670 q 277 722 279 709 q 277 727 275 724 q 286 730 277 732 q 363 625 362 694 m 42 35 q -18 -18 42 -14 q -73 35 -72 -20 q -9 87 -68 83 q 42 35 42 85 z "},"\"":{"ha":313,"x_min":83,"x_max":403,"o":"m 397 655 q 266 453 374 553 q 248 448 255 445 q 245 461 243 449 q 309 688 270 537 q 330 701 309 703 q 381 686 342 699 q 397 655 403 680 m 237 613 q 106 411 214 511 q 90 406 95 401 q 87 419 83 407 q 149 646 107 484 q 170 659 151 661 q 222 644 186 656 q 237 613 243 637 z "},"#":{"ha":884,"x_min":0,"x_max":890,"o":"m 884 363 q 879 354 883 353 q 852 373 875 358 q 680 396 815 397 q 613 302 644 347 q 747 277 719 297 q 799 216 803 250 q 793 206 798 206 q 765 224 789 209 q 570 240 720 251 q 514 157 564 233 q 430 -39 427 28 q 433 -60 430 -47 q 437 -73 437 -72 q 435 -77 437 -76 q 422 -76 434 -81 q 380 8 382 -61 q 452 210 369 65 l 467 231 q 305 214 393 224 q 269 159 298 203 q 182 -46 180 26 q 189 -75 184 -62 q 189 -85 191 -83 q 175 -84 187 -90 q 130 3 133 -68 q 198 201 121 60 l 96 187 q 42 190 58 182 q 0 256 0 216 q 14 266 1 270 q 64 262 33 259 l 248 278 l 309 373 l 182 361 q 127 365 142 357 q 88 434 85 393 q 102 442 91 448 q 152 437 117 435 q 358 448 183 438 q 505 666 419 540 q 526 718 525 696 q 544 726 528 734 q 598 643 593 701 q 572 589 601 618 q 472 452 533 536 l 616 458 q 745 646 637 490 q 765 694 764 673 q 783 703 766 711 q 836 624 827 681 q 812 572 836 601 q 723 454 789 544 q 836 426 812 445 q 884 363 890 397 m 572 392 q 422 381 505 388 q 355 288 387 332 l 511 300 l 572 392 z "},"$":{"ha":757,"x_min":-14,"x_max":762,"o":"m 757 700 q 755 629 762 669 q 734 602 757 604 q 647 612 669 608 q 640 617 640 614 q 644 621 640 620 q 699 632 663 625 q 598 646 682 642 l 562 598 q 663 552 631 578 q 713 456 711 517 q 618 286 718 377 q 254 160 481 160 l 247 160 q 202 42 205 84 q 201 18 201 22 l 201 7 q 182 69 182 27 q 184 89 182 76 q 186 109 186 102 q 199 163 186 117 q 0 326 19 184 q 126 481 -14 422 q 342 529 231 525 q 422 524 376 530 l 458 575 q 332 586 400 583 q 262 632 262 579 q 270 662 262 647 q 292 675 274 670 q 567 724 376 716 q 629 807 587 751 q 675 891 670 863 l 675 891 q 677 894 675 892 l 677 894 q 705 812 705 864 q 704 796 705 804 q 673 739 696 776 q 662 726 669 735 q 719 724 690 726 q 757 700 751 730 m 510 646 q 369 629 448 642 l 369 628 q 487 616 418 627 l 510 646 m 692 448 q 627 522 682 494 l 532 560 l 490 506 q 576 453 543 486 q 585 437 589 444 q 578 433 582 433 q 570 435 574 433 q 463 471 536 457 q 320 277 387 372 q 286 227 305 255 q 563 307 437 240 q 692 448 673 365 m 389 476 q 347 476 347 476 q 160 442 254 475 q 24 331 37 401 q 201 228 30 252 q 227 225 220 225 q 292 340 252 279 q 389 476 297 347 z "},"%":{"ha":552,"x_min":-5,"x_max":560,"o":"m 312 557 q 262 435 319 509 q 80 315 161 305 q 47 328 57 317 q 0 403 5 345 q 45 541 -5 468 q 148 647 85 601 q 237 684 193 681 q 298 631 277 686 q 293 620 301 623 q 274 624 289 623 q 118 510 195 608 q 71 433 90 475 q 57 347 45 376 q 65 345 58 345 q 142 388 91 342 q 263 589 251 486 q 259 602 264 597 q 254 606 254 606 q 258 606 255 608 q 296 595 281 609 q 312 557 312 581 m 519 590 q 494 540 521 567 q 190 130 326 326 q 113 -46 111 18 q 117 -72 113 -61 l 119 -77 q 114 -83 117 -83 q 104 -80 111 -83 q 68 -1 68 -66 q 144 191 60 62 q 435 609 245 347 q 454 650 442 618 q 473 665 461 669 q 519 590 517 642 m 553 205 q 502 83 560 157 q 321 -38 401 -47 q 289 -24 298 -35 q 241 50 247 -8 q 251 115 239 76 q 388 294 281 216 q 477 331 434 328 q 540 278 519 334 q 533 267 543 270 q 514 273 528 271 q 358 157 430 251 q 293 22 293 72 q 298 -5 293 7 q 307 -8 300 -8 q 382 35 330 -11 q 491 187 457 102 q 505 236 502 214 q 495 254 506 243 q 499 255 495 255 q 553 205 553 258 z "},"&":{"ha":848,"x_min":-4,"x_max":849,"o":"m 849 400 q 844 393 849 396 q 825 398 840 392 q 807 404 811 404 q 736 373 783 404 q 681 340 715 355 l 681 339 q 439 -18 643 84 q 243 -69 342 -66 q 28 16 91 -73 q 0 102 1 56 q 156 334 -4 213 q 258 395 186 355 q 355 438 288 411 q 305 532 309 481 q 500 749 297 627 q 562 768 529 766 q 639 705 608 770 q 643 697 643 701 q 631 682 643 689 q 391 484 435 602 q 397 456 388 468 q 540 537 463 483 q 601 628 598 570 q 591 646 595 633 q 601 650 591 651 q 669 570 666 636 q 576 461 670 521 q 460 395 505 416 q 552 269 552 342 q 441 159 552 175 q 366 178 372 156 q 387 190 366 189 q 483 263 473 195 q 420 374 492 327 q 99 79 115 229 q 142 -3 92 23 q 241 -20 182 -22 q 548 155 426 -15 q 633 324 600 227 l 633 326 l 631 326 q 616 323 624 323 q 563 346 587 323 q 525 404 533 380 q 524 408 524 407 q 525 412 524 411 q 530 412 529 415 q 552 401 538 403 q 623 415 575 399 q 761 456 703 452 q 849 400 837 461 z "},"'":{"ha":117,"x_min":41,"x_max":236,"o":"m 224 606 q 60 456 175 515 q 50 454 54 454 q 45 457 46 456 q 47 473 41 461 q 167 674 146 637 q 176 684 170 684 q 186 680 180 684 q 221 644 214 654 q 224 606 236 628 z "},"(":{"ha":275,"x_min":-11,"x_max":480,"o":"m 477 810 q 480 800 480 806 q 461 766 480 783 q 142 311 231 567 q 88 39 88 153 q 107 -64 88 -30 q 117 -80 117 -73 q 111 -91 117 -87 q 83 -88 102 -100 q 0 84 7 -38 q 111 507 -11 275 q 377 860 217 708 q 397 873 385 873 q 415 868 406 873 q 477 810 456 846 z "},")":{"ha":319,"x_min":-163,"x_max":324,"o":"m 319 750 l 317 749 l 317 747 q 90 53 317 332 q 19 -23 45 -1 q -122 -76 -46 -76 q -163 -64 -163 -76 l -163 -62 q -152 -60 -160 -60 l -149 -60 q 102 216 -53 -45 q 205 548 178 345 q 216 746 216 629 q 216 749 216 749 q 228 777 214 770 q 250 780 239 780 q 304 770 274 780 l 305 770 q 319 750 324 766 z "},"*":{"ha":419,"x_min":-12,"x_max":439,"o":"m 439 530 q 419 510 435 511 q 269 488 320 499 q 302 368 301 395 q 285 343 304 346 q 252 362 269 343 l 180 448 q 30 355 73 389 q 8 349 18 349 q 0 350 4 349 q 0 368 -12 355 l 123 486 q 22 494 64 496 q 4 510 0 496 q 19 529 1 525 q 180 557 146 555 l 302 700 q 323 703 309 708 q 330 688 334 701 l 277 560 q 425 541 378 556 q 439 530 438 540 z "},"+":{"ha":399,"x_min":-4,"x_max":401,"o":"m 399 324 q 363 308 392 302 q 304 313 335 313 q 214 304 258 313 q 88 96 115 182 q 75 68 91 71 q 47 85 54 65 q 43 122 42 99 q 115 297 46 197 q 28 281 66 294 q 14 277 20 277 q 0 290 1 277 q 5 336 -4 316 q 38 354 4 347 q 155 366 107 368 q 256 499 203 444 q 277 510 267 510 q 293 503 286 510 q 331 460 323 475 q 313 411 342 444 q 271 369 293 391 q 264 362 271 369 q 384 346 338 363 q 399 324 401 339 z "},",":{"ha":91,"x_min":-179,"x_max":18,"o":"m 5 42 q -160 -103 -46 -46 q -171 -104 -167 -104 q -175 -102 -174 -103 q -172 -87 -179 -98 q -53 106 -83 53 q -43 114 -50 114 q -33 110 -39 114 q 3 77 -4 87 q 5 42 18 62 z "},"-":{"ha":411,"x_min":-9,"x_max":418,"o":"m 416 321 q 408 320 415 319 q 393 320 403 321 q 100 281 305 305 l 85 279 q 18 299 45 275 q -8 363 -9 323 q 8 372 -8 378 q 153 350 30 351 q 374 353 290 349 q 412 332 397 354 q 416 321 418 326 z "},".":{"ha":134,"x_min":-100,"x_max":34,"o":"m 34 39 q -35 -23 34 -19 q -100 39 -99 -27 q -26 99 -96 94 q 34 39 34 98 z "},"/":{"ha":346,"x_min":-145,"x_max":469,"o":"m 467 722 q 434 651 469 689 q 37 91 245 403 q -77 -176 -83 -88 q -69 -213 -76 -195 q -66 -221 -66 -218 q -69 -227 -66 -225 q -87 -225 -71 -232 q -144 -113 -141 -205 q -145 -90 -145 -102 q -47 161 -145 4 q 345 751 85 374 q 373 819 370 789 q 396 829 374 837 q 467 722 460 796 z "},":":{"ha":206,"x_min":-35,"x_max":206,"o":"m 206 382 q 142 324 206 328 q 81 381 83 321 q 151 438 85 433 q 206 382 206 437 m 88 132 q 24 79 88 83 q -35 130 -34 76 q 34 182 -30 179 q 88 132 88 183 z "},";":{"ha":144,"x_min":-136,"x_max":145,"o":"m 137 205 q 94 179 123 179 q 56 189 75 179 q 20 236 20 206 q 72 286 20 286 q 114 277 92 286 q 145 231 145 259 q 137 205 145 217 m 47 39 q -117 -111 -3 -53 q -127 -113 -123 -114 q -132 -110 -130 -111 q -129 -95 -136 -106 q -11 107 -45 43 q -1 115 -8 115 q 9 111 3 115 q 45 76 37 87 q 47 39 60 61 z "},"<":{"ha":547,"x_min":1,"x_max":502,"o":"m 502 694 l 129 321 l 477 -28 l 408 -99 l 1 308 l 1 335 l 431 765 l 502 694 z "},"=":{"ha":574,"x_min":83,"x_max":575,"o":"m 574 382 q 564 381 571 380 q 547 381 556 382 q 208 335 445 363 l 191 334 q 107 361 134 328 q 84 433 83 399 q 103 441 84 449 q 270 415 129 416 q 525 419 419 414 q 570 395 553 420 q 574 382 575 387 m 521 241 q 513 239 519 239 q 498 240 507 241 q 201 202 283 210 l 187 201 q 113 222 140 195 q 92 281 91 254 q 109 288 92 294 q 255 267 130 269 q 477 270 392 266 q 517 251 502 271 q 521 241 522 244 z "},">":{"ha":648,"x_min":109,"x_max":609,"o":"m 609 345 l 608 331 l 178 -99 l 109 -28 l 481 345 l 132 694 l 202 765 l 608 358 l 609 345 z "},"?":{"ha":613,"x_min":-58,"x_max":616,"o":"m 614 560 q 502 397 616 471 q 309 321 450 363 q 142 247 182 282 q 104 176 106 206 q 87 155 104 157 q 52 210 54 159 q 50 225 50 217 q 148 343 50 285 q 381 446 326 418 q 575 595 530 524 q 500 600 560 609 q 258 534 377 579 q 140 507 190 509 q 61 616 61 513 l 61 627 q 61 629 60 629 q 65 631 62 632 q 68 628 65 629 q 103 628 88 627 q 220 651 163 635 q 399 692 319 681 q 467 701 441 701 q 585 655 544 701 q 598 629 594 644 q 614 560 614 612 m -5 -30 q -54 7 -50 -28 q -31 60 -58 37 q 28 84 -3 84 q 79 45 79 84 q -5 -30 79 -23 z "},"@":{"ha":836,"x_min":12,"x_max":817,"o":"m 667 202 q 490 104 574 104 q 430 129 456 104 q 406 187 404 153 q 468 338 397 237 l 469 342 l 467 343 l 387 229 q 343 161 372 208 l 328 137 q 311 117 317 119 q 290 122 301 114 q 218 218 221 172 q 305 430 212 312 q 473 559 363 503 q 477 562 475 559 l 481 566 q 488 564 484 567 q 562 457 562 514 q 559 452 562 453 q 540 468 549 452 q 532 476 536 475 q 524 476 528 477 q 381 384 454 450 q 277 171 281 293 q 279 171 278 168 l 519 434 q 529 442 525 442 l 578 406 q 586 393 582 404 q 582 377 589 387 q 505 273 514 286 q 454 156 454 197 q 461 136 454 142 q 601 214 541 164 q 758 537 742 332 q 726 659 765 614 q 612 704 688 704 q 136 351 335 704 q 88 163 88 245 q 281 -47 88 -14 q 503 23 419 -56 q 521 23 515 30 q 518 5 526 15 q 292 -79 396 -81 q 152 -46 213 -77 q 20 216 12 24 q 41 326 23 262 q 163 549 77 454 q 605 761 355 764 q 730 724 680 760 q 817 534 817 663 q 667 202 817 358 z "},"A":{"ha":1017,"x_min":-176,"x_max":1161,"o":"m 1152 673 q 1139 667 1149 671 q 879 327 998 540 q 958 259 958 293 q 954 254 958 255 q 943 260 951 251 q 867 302 913 286 q 761 14 761 106 q 774 -33 761 -16 q 781 -45 781 -38 q 773 -49 780 -49 q 760 -46 768 -49 q 686 75 692 -14 q 718 235 681 145 q 747 307 739 289 q 529 279 620 296 q 317 88 461 214 q -27 -136 79 -122 q -107 -100 -68 -141 l -168 -18 q -170 -1 -176 -7 q -165 1 -168 0 q -159 -1 -161 0 q -96 -24 -140 -24 q 245 146 -4 -33 q 374 250 300 184 l 247 224 q 148 212 189 212 q 16 311 75 210 l 7 327 q 4 332 4 330 q 12 339 5 336 q 16 336 15 338 q 79 319 38 320 q 243 326 94 319 q 479 339 317 330 l 916 693 q 1067 800 1021 777 q 1085 792 1073 802 q 1150 707 1128 751 q 1152 673 1161 685 m 981 662 q 977 661 979 663 q 601 346 903 606 q 768 346 689 349 q 981 658 807 414 q 981 662 983 661 z "},"B":{"ha":962,"x_min":-75,"x_max":996,"o":"m 991 625 q 910 528 996 578 q 764 486 838 494 l 764 484 q 892 313 880 452 q 761 98 902 199 q 520 -18 656 23 q 244 -61 384 -60 q 56 -22 145 -61 q -71 113 -52 27 q -73 149 -72 121 q -23 270 -75 206 q 58 335 3 301 q 292 397 148 389 l 530 662 l 528 665 q 279 621 315 639 q 282 617 278 618 q 311 606 311 608 q 301 600 312 602 q 231 598 263 594 q 199 637 205 602 q 194 707 193 688 q 209 724 195 719 q 585 780 327 773 q 842 760 715 784 q 948 723 916 746 q 991 625 993 690 m 932 635 q 643 673 903 675 l 650 654 q 652 642 652 648 q 642 616 652 628 l 537 503 q 823 579 640 499 q 932 635 880 604 m 861 313 q 575 446 860 429 q 471 433 525 449 l 434 393 q 509 372 452 391 q 637 252 608 338 q 631 225 644 235 q 616 237 623 222 q 372 327 560 317 l 369 326 l 190 134 q 160 83 164 107 q 146 65 157 69 q 122 79 136 60 l 100 119 q 96 137 96 127 q 110 175 96 156 q 217 312 184 279 q -39 140 -3 278 q 208 28 -4 33 q 514 75 354 26 q 788 212 674 125 q 861 313 852 260 z "},"C":{"ha":628,"x_min":-34,"x_max":663,"o":"m 663 643 q 646 618 663 632 q 465 496 506 537 l 454 486 q 448 481 452 483 q 442 490 442 484 q 449 502 442 492 q 576 658 537 621 q 575 661 575 659 q 151 351 354 629 q 43 88 43 205 q 54 31 43 52 q 140 0 79 -1 q 453 171 275 4 q 553 282 517 231 q 562 290 557 290 q 571 264 574 290 q 532 152 564 203 q 214 -79 400 -60 q 39 4 100 -90 q -23 142 -16 49 q 125 507 -34 316 q 288 665 198 595 q 555 791 437 780 q 562 793 557 793 q 595 770 575 793 q 643 701 629 732 q 646 684 646 690 q 663 643 663 654 z "},"D":{"ha":1005,"x_min":-79,"x_max":1019,"o":"m 1005 454 q 841 156 1019 294 q 522 -9 709 53 q 235 -57 384 -56 q -8 34 80 -58 q -50 117 -43 71 q -53 137 -53 126 q 54 271 -53 212 q 227 328 140 319 l 347 473 q 475 612 414 552 q 30 519 286 612 q 33 515 27 517 l 69 506 q 80 498 80 503 q 72 491 80 492 q -14 488 27 483 q -58 528 -38 492 q -77 587 -76 559 q -79 593 -79 590 q -53 616 -79 605 q 566 719 194 722 q 903 628 761 718 q 1005 454 996 570 m 738 601 q 545 613 652 613 l 544 613 q 579 578 552 608 q 587 555 587 567 q 533 492 587 543 q 412 372 479 442 q 369 324 391 349 q 458 292 403 317 q 511 236 488 277 q 513 220 515 227 q 503 213 511 217 q 469 233 499 213 q 433 256 439 254 q 376 275 418 263 q 330 279 343 281 l 328 278 q 239 161 292 241 q 174 64 239 161 q 168 46 168 53 q 172 34 168 39 q 564 119 330 27 q 936 388 867 239 q 958 479 958 435 q 738 601 958 570 m 170 252 q 0 113 -9 186 q 146 34 11 33 q 84 115 88 71 q 98 149 83 137 q 111 167 102 153 l 170 252 z "},"E":{"ha":810,"x_min":-80,"x_max":812,"o":"m 810 552 q 792 529 812 530 q 685 538 724 537 q 667 544 669 536 q 666 547 666 545 q 674 552 666 551 q 732 568 712 566 q 579 581 688 583 q 274 528 414 576 q 650 498 590 498 l 662 498 q 669 499 665 499 q 678 490 674 499 q 696 427 689 464 q 697 419 697 422 q 681 403 697 407 q 589 384 673 401 q 245 274 444 353 q -33 34 0 176 q 119 -3 1 -3 q 437 72 263 -3 q 718 240 587 138 q 736 250 731 251 q 739 245 739 250 q 700 168 739 209 q 438 -20 594 60 q 129 -106 266 -109 q -69 34 -37 -103 q -73 95 -80 58 q -42 163 -68 126 q 118 302 -8 228 q 313 397 216 361 q 533 467 468 456 q 241 473 388 472 q 198 490 203 473 q 174 562 174 543 q 203 602 174 585 q 528 684 294 656 q 762 693 632 696 q 789 674 784 697 l 803 575 q 810 552 810 560 z "},"F":{"ha":730,"x_min":-37,"x_max":863,"o":"m 856 741 q 764 571 863 692 q 620 419 678 468 q 738 420 686 420 q 770 411 770 420 q 681 378 768 401 q 562 362 618 362 q 410 194 519 320 q 288 7 312 81 q 281 -54 274 -35 q 282 -66 285 -60 q 267 -72 277 -72 q 247 -66 259 -72 q 197 27 199 -38 q 214 102 195 58 q 293 228 222 140 q 406 355 345 293 q 228 366 277 359 q 221 374 225 370 q 231 380 222 378 q 463 410 347 400 q 669 602 555 488 q 789 742 727 661 q 674 692 779 746 q 308 529 492 595 q 68 472 137 467 q -18 551 4 476 q -34 620 -28 590 q -22 637 -37 635 q -9 632 -15 639 q 52 616 8 609 q 151 629 80 620 q 358 681 233 642 l 674 780 q 764 804 712 792 q 799 804 783 807 q 856 741 860 784 z "},"G":{"ha":730,"x_min":-43,"x_max":728,"o":"m 723 415 q 728 404 728 411 q 651 301 728 382 q 560 209 621 270 q 395 -64 414 60 q 384 -87 396 -85 q 359 -50 362 -85 q 358 -34 358 -42 q 382 73 358 22 l 414 140 l 412 141 q 130 -64 267 -50 q 20 -3 65 -60 q -41 111 -35 50 q -43 140 -43 125 q 114 483 -43 277 q 538 821 263 678 q 567 831 552 831 q 594 821 581 831 q 665 727 633 789 q 684 674 686 699 q 665 651 688 667 q 495 552 552 595 q 479 541 487 541 q 468 553 468 541 q 472 567 468 560 q 567 682 532 644 q 205 416 378 610 q 42 137 100 298 q 34 75 34 102 q 80 11 34 11 q 397 203 206 11 l 616 423 q 429 316 496 346 q 400 308 415 308 q 359 327 377 308 q 327 382 345 339 q 323 397 321 392 q 327 404 323 403 q 336 404 331 408 q 384 401 347 395 q 628 484 445 407 q 644 490 635 490 q 666 481 655 490 q 723 415 696 452 z "},"H":{"ha":1032,"x_min":-42,"x_max":1255,"o":"m 1252 750 q 1255 741 1255 746 q 1241 719 1255 730 q 902 406 1004 521 q 1034 332 991 376 q 1043 309 1044 319 q 1036 304 1042 304 q 1024 309 1031 304 q 871 369 960 358 q 659 27 680 151 q 673 -35 655 3 q 677 -43 677 -39 q 674 -50 677 -46 q 650 -52 669 -62 q 585 76 583 -12 q 743 384 586 171 q 475 345 665 387 q 258 43 334 157 q 218 -43 217 -18 q 222 -68 221 -54 q 201 -66 216 -73 q 140 66 133 -38 q 222 220 144 121 l 286 300 l 285 301 l 159 259 q 99 247 125 248 q -1 316 42 245 q -38 381 -14 331 q -39 393 -42 389 q -37 395 -38 395 q -22 391 -28 399 q 79 351 3 346 q 205 372 138 355 l 373 396 q 673 707 553 595 q 674 712 675 709 l 665 712 q 180 481 492 708 l 205 475 q 212 467 212 473 q 180 454 212 454 q 129 471 152 454 q 75 556 85 513 q 73 560 73 559 q 92 582 73 570 q 625 774 366 750 q 696 739 659 777 q 720 693 720 722 q 715 666 720 680 q 533 416 623 518 q 718 426 640 426 q 776 425 749 426 q 1152 825 930 628 q 1162 838 1156 836 q 1179 833 1169 842 q 1252 750 1230 792 z "},"I":{"ha":696,"x_min":-91,"x_max":860,"o":"m 852 684 q 454 176 637 370 q 64 -79 262 -71 q -79 -27 -15 -81 q -87 -8 -91 -16 q -76 -1 -84 -1 q -66 -4 -72 -1 q -8 -18 -46 -16 q 342 198 153 -24 q 711 726 553 449 q 294 574 533 731 q 148 395 171 492 q 157 385 146 388 q 170 376 168 382 q 159 362 171 365 q 146 359 153 359 q 62 431 115 359 q 56 450 56 441 q 60 469 56 458 q 358 699 88 586 q 753 796 570 787 q 783 779 761 796 q 846 727 834 749 q 860 704 860 716 q 852 684 860 693 z "},"J":{"ha":783,"x_min":-37,"x_max":852,"o":"m 737 351 q 680 269 737 351 q 572 130 623 186 q 677 30 646 91 q 678 4 686 12 q 652 16 665 3 q 528 79 595 77 q 359 -92 471 -7 q 164 -194 237 -186 q 115 -178 142 -197 q 80 -138 88 -160 q 80 -90 65 -121 q 233 61 119 -4 q 437 140 327 115 q 621 368 496 206 q 765 598 718 491 q 783 670 783 637 q 724 718 783 718 q 688 713 704 718 q 351 571 507 670 q 52 213 56 384 q 111 187 46 193 q 521 397 260 175 q 548 406 538 412 q 552 397 552 403 q 543 378 552 389 q 151 113 320 133 q 11 201 66 102 q -12 255 -7 231 q -23 298 -22 277 q 212 633 -37 461 q 283 680 248 659 q 662 808 484 796 q 834 697 780 817 q 852 629 852 674 q 737 351 852 517 m 376 72 q 203 -12 298 57 q 114 -113 146 -54 q 118 -119 111 -119 q 125 -118 122 -119 q 376 72 251 -69 z "},"K":{"ha":1010,"x_min":-3,"x_max":1191,"o":"m 1191 700 q 888 400 1181 544 q 479 317 745 330 q 768 111 704 146 q 823 98 803 98 q 875 122 854 99 l 897 146 q 916 151 905 156 q 920 141 920 146 q 916 127 920 136 q 836 26 865 53 q 779 -4 812 -4 q 718 18 765 -7 q 427 258 555 129 q 264 47 345 163 q 237 -16 233 3 q 244 -33 239 -20 q 250 -49 250 -45 q 239 -60 250 -60 q 222 -52 231 -60 l 172 16 q 156 60 156 34 q 183 134 156 96 l 319 323 q 317 346 313 335 q 368 366 326 366 q 722 750 646 651 q 715 755 718 753 q 109 420 363 637 q 134 406 114 408 q 142 399 142 406 q 129 388 145 391 q 110 385 119 385 q 62 401 84 385 q 0 494 14 450 q -3 498 -3 495 q 9 513 -3 505 q 488 762 236 670 q 670 807 595 802 q 685 810 677 810 q 741 781 713 810 l 769 751 q 777 722 777 741 q 639 492 777 644 l 526 369 q 926 553 745 399 q 1066 703 1009 624 q 1100 825 1107 760 q 1103 826 1101 825 q 1191 700 1187 803 z "},"L":{"ha":452,"x_min":-123,"x_max":631,"o":"m 627 693 q 631 682 631 689 q 621 665 631 674 q 491 553 528 591 q 479 547 486 547 q 471 549 475 547 q 471 563 465 551 q 529 673 509 644 q 254 365 355 553 q 146 178 224 309 q 16 62 95 96 q 81 49 38 62 q 354 -16 292 -16 q 415 12 392 -12 q 423 18 418 18 q 427 14 426 19 q 431 -23 431 -5 q 351 -109 431 -102 q 134 -34 292 -114 q -47 14 60 4 q -98 8 -69 14 q -122 27 -118 4 q -115 38 -123 34 q -64 62 -96 52 q 71 222 -12 92 q 144 366 88 251 q 343 673 229 545 q 510 781 429 768 q 551 769 530 784 q 627 693 597 734 z "},"M":{"ha":1097,"x_min":-45,"x_max":1255,"o":"m 1242 684 q 1255 666 1255 677 q 1241 639 1255 655 q 913 96 948 288 q 911 75 911 90 q 958 -12 911 15 l 971 -16 q 979 -24 979 -18 q 971 -31 981 -28 q 822 111 840 -33 q 875 308 814 182 q 1082 624 925 411 l 1080 625 q 709 182 787 290 q 604 -4 646 92 q 605 -30 595 -16 q 605 -41 609 -35 q 598 -43 604 -43 q 587 -42 594 -43 q 517 61 524 -7 q 552 164 514 91 q 854 661 688 425 l 852 663 q 380 138 468 259 q 293 -35 296 23 q 300 -60 293 -42 q 294 -75 302 -68 q 288 -77 292 -77 q 274 -71 281 -77 q 208 35 212 -12 q 205 45 205 38 q 278 197 205 92 l 564 606 q 642 743 635 707 q 640 749 644 747 l 637 749 q 334 578 499 696 q 75 347 168 461 q 99 340 75 342 q 110 332 109 340 q 103 324 113 328 q 64 315 83 315 q 18 331 37 315 q -43 412 -30 372 q -45 416 -45 414 q -30 435 -45 423 q 415 732 217 636 q 595 800 530 789 q 661 780 632 807 l 686 755 q 704 678 712 731 q 582 439 689 586 q 500 335 534 376 l 503 331 l 878 760 q 907 779 890 777 q 936 765 917 781 q 1005 689 1005 705 q 997 663 1005 675 l 754 296 l 757 293 q 1123 727 1013 610 q 1153 750 1135 750 q 1162 749 1157 750 q 1242 684 1202 724 z "},"N":{"ha":836,"x_min":-23,"x_max":1006,"o":"m 998 674 q 1006 663 1006 670 q 996 642 1006 652 q 639 87 654 286 q 682 -1 633 9 q 696 -11 694 -3 q 682 -19 696 -19 q 543 122 560 1 q 826 618 534 307 l 823 620 q 315 127 446 277 q 212 -12 228 30 q 208 -35 212 -18 q 197 -53 205 -52 q 176 -34 186 -56 l 146 33 q 140 61 140 47 q 153 117 140 91 q 460 553 210 222 q 564 694 491 597 l 564 699 q 559 700 563 701 q 72 363 347 625 q 92 357 80 358 q 99 353 99 357 q 66 338 99 338 q 31 351 45 338 q -20 438 -7 391 q -23 448 -23 442 q -5 476 -23 464 q 335 690 197 621 q 477 750 400 723 q 518 758 500 758 q 590 726 560 758 q 608 666 608 715 q 431 334 608 557 l 434 331 q 637 509 536 419 q 880 735 772 627 l 892 747 q 910 757 902 757 q 925 751 917 757 q 998 674 971 712 z "},"O":{"ha":696,"x_min":-31,"x_max":696,"o":"m 696 500 q 578 209 696 361 q 338 0 473 75 q 191 -41 263 -41 q 75 -4 126 -41 q -31 217 -31 71 q 47 465 -31 339 q 222 663 114 574 q 528 812 372 787 q 544 815 536 815 q 586 800 567 815 q 661 699 637 758 q 662 689 662 693 q 637 675 662 674 q 601 671 620 678 q 696 500 696 651 m 631 563 q 600 635 629 621 q 548 643 582 643 q 347 557 453 643 q 208 420 273 496 q 187 406 195 406 q 179 410 183 406 q 168 427 168 415 q 172 444 168 435 q 56 197 72 349 q 54 161 54 184 q 125 9 54 34 q 209 16 155 -1 q 290 54 236 24 q 572 376 475 184 q 631 563 632 492 z "},"P":{"ha":818,"x_min":-33,"x_max":951,"o":"m 948 632 q 951 612 951 623 q 825 434 951 530 q 627 320 731 362 q 343 270 498 267 q 297 290 320 264 q 270 340 274 316 q 58 9 119 170 q 49 -52 47 -19 q 50 -58 50 -56 q 47 -64 50 -62 q 41 -66 45 -66 q 16 -47 33 -66 q -23 49 -23 -4 q 41 198 -33 83 q 222 454 80 260 l 363 647 q 359 650 362 648 q 109 576 218 618 l 138 566 q 144 560 144 564 q 136 555 142 556 q 94 551 114 551 q 31 578 46 551 q 11 637 15 601 q 7 650 7 644 q 42 684 7 669 q 605 789 269 780 q 822 762 724 792 q 948 632 943 724 m 903 623 l 899 627 q 658 682 859 682 q 464 669 572 682 q 490 609 490 643 q 480 586 490 595 q 332 423 468 571 l 361 426 q 372 419 370 426 q 363 406 373 415 l 330 378 q 804 511 629 374 q 903 623 878 570 z "},"Q":{"ha":690,"x_min":-60,"x_max":948,"o":"m 941 -168 q 838 -307 948 -298 q 566 -235 766 -312 q 296 -121 442 -187 q 180 -81 269 -109 q 79 -64 140 -69 q -28 -66 45 -61 q -45 -69 -39 -69 q -56 -65 -53 -69 q -47 -50 -60 -58 q 103 -7 14 -7 l 111 -7 q 80 11 94 0 q -26 231 -26 88 q 62 494 -26 358 q 362 768 170 659 q 533 827 441 812 q 549 830 541 830 q 639 764 589 830 q 667 704 667 726 q 646 689 667 690 q 606 686 625 688 q 701 515 703 666 q 583 225 700 376 q 343 15 479 91 q 252 -19 297 -11 l 254 -20 q 293 -33 278 -27 l 450 -94 q 639 -165 507 -117 q 850 -209 762 -210 q 928 -163 913 -208 q 937 -155 929 -153 q 941 -168 941 -155 m 637 576 q 605 650 636 636 q 553 658 587 658 q 214 435 400 658 q 193 420 202 420 q 186 423 189 420 q 175 442 175 430 q 179 458 175 450 q 61 197 75 361 q 132 24 50 61 q 214 31 160 15 q 297 69 241 39 q 579 389 486 206 q 637 576 639 506 z "},"R":{"ha":853,"x_min":-35,"x_max":959,"o":"m 958 574 q 751 358 959 452 q 301 267 575 278 q 552 54 389 95 q 682 161 627 46 q 704 172 688 176 q 715 148 722 167 q 620 23 689 71 q 469 -24 551 -24 q 224 243 335 -24 q 65 18 117 118 q 45 -54 46 -19 q 50 -73 43 -61 l 47 -76 q 37 -73 43 -81 q -27 41 -22 -5 q 117 283 -34 110 q 104 305 104 292 q 141 345 104 319 q 193 376 167 359 l 387 608 l 384 610 q 80 525 189 566 q 96 514 77 522 q 109 506 107 510 q 91 499 110 500 l 27 494 q -15 533 3 488 q -31 600 -27 564 q -11 625 -35 617 q 578 739 277 728 q 958 574 925 753 m 920 581 q 690 639 884 639 q 437 618 583 639 q 477 585 450 612 q 488 562 488 574 q 483 548 488 555 l 328 361 q 602 406 475 376 q 920 581 884 472 z "},"S":{"ha":939,"x_min":-92,"x_max":970,"o":"m 962 678 q 959 578 970 636 q 929 538 962 540 q 810 552 838 547 q 800 559 800 556 q 806 564 800 563 q 880 581 833 571 q 773 600 861 593 q 685 602 757 600 q 423 576 602 605 l 423 575 q 783 496 623 572 q 902 328 901 441 q 863 193 903 262 q 769 84 826 130 q 476 -72 671 -16 q 264 -98 400 -94 q 38 -47 129 -102 q -85 141 -68 15 q -52 251 -92 193 q 33 334 -19 298 q 385 433 164 425 q 564 407 473 435 q 719 316 670 374 q 723 300 727 307 q 703 298 718 292 q 393 355 602 363 q 103 297 193 347 q 4 241 47 278 q -54 148 -50 197 q 71 27 -47 69 q 255 -7 155 -4 q 480 27 354 -9 q 692 113 597 60 q 871 316 860 205 q 656 476 852 414 q 373 514 559 507 q 347 513 358 513 q 283 543 293 513 q 275 581 275 562 q 316 643 275 628 q 817 715 461 715 q 909 713 868 715 q 962 678 954 719 z "},"T":{"ha":438,"x_min":-96,"x_max":987,"o":"m 985 600 q 982 591 987 595 q 947 608 970 598 q 769 624 856 625 q 549 601 658 623 l 557 589 q 563 571 567 579 q 547 553 560 566 q 187 136 296 327 q 122 -35 133 41 q 122 -50 121 -45 q 121 -58 125 -56 q 110 -56 117 -64 q 66 50 66 1 q 138 233 66 110 q 380 564 228 387 q 118 532 241 532 q -87 680 -27 532 q -91 711 -96 701 q -88 712 -90 712 q -76 705 -84 711 q 130 658 8 661 q 408 684 186 656 q 677 707 449 689 q 735 709 711 709 q 944 658 869 709 q 985 600 971 639 z "},"U":{"ha":817,"x_min":-60,"x_max":991,"o":"m 985 610 q 982 608 985 610 q 954 579 979 605 q 643 57 643 266 q 694 -38 643 -9 q 707 -49 709 -39 q 692 -52 707 -53 q 555 114 572 -35 q 624 320 545 193 q 715 457 689 426 l 712 460 l 374 60 q 304 -26 354 34 q 239 -64 275 -60 q 175 -33 203 -64 q 130 24 136 11 q 102 100 106 56 q 151 258 98 152 q 430 590 227 408 q 530 684 456 613 q 543 711 544 696 q 53 475 321 678 l 100 475 q 110 468 107 477 q 99 452 113 460 q 35 430 62 434 q -8 456 18 425 q -54 533 -39 505 q -39 564 -60 552 q 480 779 277 754 q 575 734 537 785 q 602 670 601 707 q 538 545 610 624 q 194 15 256 235 q 509 308 237 11 l 872 705 q 890 719 879 719 q 909 711 898 719 q 983 637 954 677 q 991 624 991 631 q 985 610 991 616 z "},"V":{"ha":795,"x_min":-49,"x_max":1002,"o":"m 1002 686 q 932 536 1002 606 q 625 250 810 414 q 437 72 587 216 q 342 -46 345 -16 q 343 -58 340 -49 q 338 -73 347 -65 q 321 -80 330 -80 q 278 -61 307 -80 q 214 54 217 -20 q 471 591 209 232 q 547 711 530 673 q 73 374 311 633 l 99 377 q 106 374 104 378 q 100 365 107 370 q 23 338 58 335 q -46 431 -14 342 q -49 446 -49 439 q -35 476 -49 465 q 509 773 292 727 q 537 777 528 777 q 590 761 568 777 q 614 732 606 745 q 625 678 628 718 q 613 625 624 648 q 498 400 578 549 q 407 235 442 297 q 326 27 336 110 q 403 109 346 49 l 690 396 q 853 663 823 529 q 856 699 856 675 q 822 777 856 755 q 804 783 814 781 q 800 787 802 783 q 804 792 799 791 q 872 806 838 806 q 983 750 951 806 q 1002 686 1002 718 z "},"W":{"ha":1166,"x_min":-64,"x_max":1298,"o":"m 1293 637 q 1119 328 1298 513 l 768 -34 q 742 -39 758 -49 q 669 60 677 -4 q 829 480 673 235 q 350 -18 522 182 q 315 -53 339 -34 q 252 5 297 -58 q 241 39 240 16 q 270 155 236 77 q 515 530 351 342 l 632 665 q 636 678 639 673 q 624 681 633 682 q 68 407 381 639 l 106 410 q 119 403 118 412 q 121 397 121 400 q 113 384 121 391 l 41 347 q 28 345 35 345 q -4 362 12 345 q -61 454 -41 403 q -64 460 -64 456 q -50 476 -64 467 q 559 736 289 723 q 682 694 652 742 q 696 671 690 689 q 686 608 701 640 q 521 309 650 528 q 361 69 400 104 l 363 69 q 879 594 605 330 q 909 612 894 612 q 922 608 917 612 q 985 560 964 582 q 998 532 998 551 q 986 492 998 510 l 959 454 q 784 95 819 259 q 768 37 776 73 q 1101 513 1009 278 q 1145 700 1142 617 q 1124 800 1146 745 q 1120 808 1120 804 q 1122 812 1120 811 q 1158 817 1123 826 q 1293 637 1286 784 z "},"X":{"ha":849,"x_min":-103,"x_max":1065,"o":"m 1062 675 q 730 419 1058 538 l 498 335 q 431 113 430 195 q 453 35 433 50 q 480 33 467 33 q 667 136 575 33 l 760 239 q 776 248 770 251 q 779 232 781 244 q 528 -58 711 -24 q 427 -11 484 -66 l 378 46 q 343 163 350 72 q 357 269 346 220 l 357 271 l 351 269 q 160 99 258 221 q 26 -122 72 -11 q 15 -167 15 -148 q 23 -195 15 -186 q 27 -208 27 -202 q 15 -225 27 -220 q -7 -225 4 -229 q -98 -103 -88 -193 q -45 31 -103 -49 q 376 327 80 202 q 614 680 453 517 q 613 682 613 681 q 184 456 479 669 q 209 450 190 450 q 216 446 216 450 q 210 438 218 442 q 140 418 170 418 q 94 437 109 418 q 54 522 58 496 q 52 529 52 525 q 66 547 52 537 q 617 758 358 723 q 689 722 654 764 q 724 651 724 669 q 694 591 728 625 q 532 396 579 473 l 530 392 q 791 540 651 430 q 983 741 911 635 q 996 777 994 757 q 994 796 996 781 l 1000 802 q 1004 800 1001 802 q 1062 675 1065 784 z "},"Y":{"ha":849,"x_min":-397,"x_max":998,"o":"m 991 637 q 998 625 998 633 q 964 576 998 616 q 694 202 779 358 l 543 -79 q 792 -278 789 -138 q 720 -355 784 -350 q 704 -347 707 -357 q 705 -335 701 -345 q 705 -323 707 -331 q 514 -129 678 -179 q 83 -572 350 -446 q -151 -635 -33 -627 q -387 -498 -326 -646 q -397 -437 -397 -472 q -274 -208 -397 -323 q 222 -31 -99 -43 q 433 -47 324 -27 l 651 335 q 648 336 650 336 l 374 18 q 308 -15 346 -15 q 240 31 277 -19 q 203 110 206 76 q 236 231 199 155 q 522 575 312 387 q 597 665 587 633 l 600 670 l 591 669 q 174 362 418 640 l 210 362 q 218 358 217 363 q 213 346 221 351 l 138 313 q 130 312 134 312 q 96 330 114 312 q 53 396 61 376 q 49 407 49 403 q 62 431 49 418 q 574 724 305 670 q 614 704 590 727 l 633 681 q 647 636 648 669 q 570 488 646 585 q 458 358 514 423 q 336 197 370 256 q 293 68 285 109 q 677 434 486 212 q 875 677 826 606 q 906 701 888 701 q 921 697 914 701 q 991 637 967 667 m 406 -104 q 248 -88 338 -88 q -43 -138 85 -88 q -202 -227 -121 -168 q -358 -467 -366 -343 q -214 -568 -351 -574 q -1 -515 -107 -564 q 406 -104 245 -401 z "},"Z":{"ha":993,"x_min":-220,"x_max":1173,"o":"m 1165 575 q 1128 525 1173 538 q 673 376 831 434 q 868 176 860 320 q 808 -5 873 81 q 826 -96 825 -46 q 810 -117 822 -114 q 791 -98 795 -121 q 781 -42 788 -62 q 316 -298 593 -224 q 79 -336 190 -332 q -203 -210 -151 -345 q -212 -168 -212 -194 q -220 -134 -220 -153 q -182 -31 -220 -81 q 392 193 -33 168 q 439 194 415 194 q 758 81 643 194 q 799 149 795 111 q 544 293 814 273 q 500 323 513 286 l 487 381 q 486 389 486 385 q 503 407 486 404 q 1023 549 796 457 q 715 528 894 536 q 589 616 590 522 q 618 699 589 671 q 623 701 620 701 q 627 697 625 701 q 842 632 648 625 q 989 642 883 633 q 1135 650 1082 650 q 1150 635 1147 650 q 1165 575 1164 594 m 730 54 q 415 142 631 152 q -66 8 125 129 q -189 -149 -189 -69 q -117 -217 -183 -195 q -12 -232 -66 -233 q 254 -197 117 -229 q 730 54 553 -126 z "},"[":{"ha":346,"x_min":-53,"x_max":618,"o":"m 618 810 l 595 758 l 457 758 l 61 -90 l 199 -90 l 175 -141 l -53 -141 l 391 810 l 618 810 z "},"\\":{"ha":346,"x_min":-137,"x_max":477,"o":"m 476 -113 q 469 -160 475 -142 q 419 -225 454 -212 q 401 -227 403 -232 q 401 -213 396 -222 q 408 -176 406 -205 q 193 248 418 -79 q -102 651 46 450 q -134 722 -137 689 q -123 762 -133 741 q -64 829 -103 808 q -52 831 -57 831 q -41 822 -42 831 q -12 751 -39 804 q 380 161 109 581 q 477 -90 477 11 q 476 -113 477 -103 z "},"]":{"ha":206,"x_min":-236,"x_max":435,"o":"m 435 810 l -8 -141 l -236 -141 l -212 -90 l -75 -90 l 321 758 l 183 758 l 208 810 l 435 810 z "},"^":{"ha":222,"x_min":-81,"x_max":395,"o":"m 395 671 q 385 654 393 662 q 250 519 286 551 l 221 495 q 210 492 214 492 q 202 494 205 491 q 205 514 197 496 q 307 722 263 643 q 316 730 309 728 q 335 724 323 731 q 384 690 366 708 q 395 671 395 682 m 248 407 q 240 395 247 404 l 126 237 q 19 75 60 145 q -23 -8 0 42 q -24 -15 -24 -11 l -24 -18 q -27 -26 -23 -23 q -38 -23 -31 -30 q -80 60 -81 18 q -23 193 -79 106 l 146 457 q 167 475 152 473 q 191 468 179 476 l 224 438 q 248 407 250 415 z "},"_":{"ha":849,"x_min":0,"x_max":825,"o":"m 825 -79 l 0 -79 l 0 0 l 825 0 l 825 -79 z "},"`":{"ha":521,"x_min":132,"x_max":430,"o":"m 427 534 q 429 524 430 528 q 426 519 429 521 q 411 522 423 514 q 140 707 293 598 q 132 716 132 709 q 136 727 132 720 q 165 760 164 760 q 203 765 184 776 q 427 534 290 715 z "},"a":{"ha":458,"x_min":-66,"x_max":464,"o":"m 458 264 q 457 248 464 258 q 283 -1 427 208 q 247 -20 270 -22 q 222 -14 231 -20 q 206 -1 217 -12 q 171 75 174 30 q 236 254 167 141 l 233 254 q 168 168 201 212 q 87 45 122 107 l 71 16 q 50 -7 60 -3 q 26 -1 39 -9 q -58 110 -54 58 q 43 354 -66 217 q 240 502 115 442 q 251 510 235 502 q 259 509 254 511 q 340 407 305 486 q 343 385 345 395 q 340 378 343 381 q 331 384 335 377 l 316 403 q 309 408 315 406 q 300 407 305 408 q 133 301 218 377 q 9 56 15 197 q 14 56 11 53 l 292 357 q 317 357 302 369 l 363 320 q 380 296 380 307 q 373 279 380 286 q 240 54 260 125 q 241 49 237 49 q 345 151 270 71 q 445 264 362 170 q 458 264 452 271 z "},"b":{"ha":423,"x_min":-60,"x_max":419,"o":"m 415 389 q 399 319 412 349 q 259 106 349 203 q 47 -18 149 -15 q -35 22 -5 -19 q -60 114 -60 58 q -15 263 -58 190 q 80 407 -9 273 q 212 609 149 510 q 302 773 293 736 q 307 796 308 787 q 300 808 304 804 q 300 814 298 811 l 301 814 q 309 815 302 818 q 359 787 330 810 q 400 715 399 757 q 378 651 404 685 q 198 411 243 475 l 199 411 q 304 480 256 460 q 326 486 316 486 q 339 481 331 486 q 392 453 372 472 q 415 389 419 434 m 315 446 q 73 218 190 377 q 7 76 12 136 q 15 23 3 39 q 220 206 92 7 q 315 446 304 338 z "},"c":{"ha":392,"x_min":-66,"x_max":396,"o":"m 392 307 q 194 41 290 157 q 96 -19 148 -15 q 9 30 50 -18 l -30 76 q -56 138 -52 102 q 47 370 -66 243 q 212 492 118 449 q 218 495 214 495 q 279 434 237 495 q 285 425 283 431 q 308 404 293 425 q 320 374 323 382 q 312 365 317 368 q 239 312 260 330 l 231 305 q 203 282 222 298 l 197 275 q 183 275 189 271 q 182 286 179 278 q 229 382 203 335 q 91 269 156 350 q 16 109 26 187 q 30 45 11 66 q 52 39 39 39 q 224 146 111 39 q 366 300 264 186 l 377 312 q 389 316 382 319 q 392 307 396 313 z "},"d":{"ha":525,"x_min":-61,"x_max":642,"o":"m 640 700 q 614 628 642 673 q 570 563 591 595 q 460 404 519 487 q 339 228 369 277 q 258 39 264 106 q 266 43 262 39 q 450 235 346 110 l 513 309 q 528 315 521 319 q 528 302 533 312 l 365 68 q 313 -3 338 28 q 311 -7 312 -7 q 275 -20 296 -23 q 245 -5 264 -22 q 199 41 213 23 q 184 88 184 53 q 213 194 184 152 l 216 198 l 213 201 q 94 26 113 56 l 71 -11 q 56 -20 65 -19 q 34 -14 50 -20 q -33 34 -15 15 q -60 109 -60 62 q 37 349 -61 220 q 218 491 109 444 l 237 499 q 288 473 251 505 q 321 418 316 449 q 335 397 335 404 l 345 410 q 456 587 400 498 q 536 770 533 720 q 532 804 540 785 q 543 811 532 814 q 606 766 578 795 q 640 700 639 734 m 305 410 q 62 212 152 372 q 14 60 14 125 q 15 42 14 49 q 18 42 16 41 q 304 387 275 297 q 305 410 307 395 z "},"e":{"ha":372,"x_min":-62,"x_max":380,"o":"m 374 278 q 264 127 339 220 q 136 -9 178 20 q 99 -20 122 -19 q 27 7 66 -18 q -35 60 -12 31 q -60 127 -58 88 q -14 283 -62 201 q 228 495 75 434 q 241 490 232 496 q 311 408 283 461 q 326 393 316 406 q 326 366 332 384 q 270 286 313 334 q 152 217 206 217 q 92 259 126 220 q 16 94 22 172 q 49 27 12 35 q 137 69 79 26 q 251 168 175 98 q 358 286 267 187 q 374 294 366 296 q 378 286 380 292 q 374 278 378 282 m 269 384 q 100 267 153 343 q 125 259 110 259 q 174 275 149 259 q 269 384 220 307 z "},"f":{"ha":412,"x_min":-182,"x_max":510,"o":"m 509 484 q 503 469 510 481 q 387 382 456 384 q 255 412 317 381 l 236 381 q 285 198 285 311 q 214 -96 285 49 q -31 -353 98 -335 q -96 -332 -58 -357 q -179 -193 -176 -309 q -61 122 -182 -77 q 91 358 -39 159 l 88 361 l -15 228 q -26 222 -20 222 q -33 225 -28 222 q -33 240 -38 232 l 126 444 q 112 465 125 446 q 100 486 99 484 q 107 488 102 488 l 109 488 q 180 480 118 488 q 346 742 297 643 q 358 791 357 764 q 358 793 357 792 q 365 793 361 796 q 445 708 418 768 q 449 651 458 680 q 415 605 438 631 q 296 468 334 514 q 342 463 313 463 q 495 484 408 463 l 506 487 q 509 484 509 487 m 214 354 q -73 -109 -9 31 q -109 -250 -109 -186 q -94 -309 -109 -289 q -83 -312 -88 -312 q 130 -64 -16 -312 q 231 252 231 106 q 214 354 231 313 z "},"g":{"ha":420,"x_min":-239,"x_max":400,"o":"m 395 271 q 393 268 395 271 q 385 258 391 264 q 346 210 380 252 q 182 -35 235 72 q 136 -126 149 -102 q 79 -209 106 -180 q -4 -277 49 -251 q -109 -302 -57 -302 q -233 -235 -171 -301 q -236 -225 -239 -229 q -229 -227 -233 -224 q -167 -248 -205 -245 q 84 -28 -50 -258 q 194 151 146 77 l 254 241 l 251 245 q 106 43 187 164 q 61 7 84 12 q 20 30 42 3 q -7 60 5 42 q -26 121 -27 83 q 136 410 -19 278 q 301 509 214 477 q 317 502 304 513 q 361 456 340 488 q 382 399 382 425 q 374 389 382 392 q 359 400 366 388 l 351 414 q 338 416 347 419 q 68 174 168 359 q 39 65 34 111 l 41 65 l 309 354 q 321 365 315 363 q 334 359 326 366 l 382 320 q 400 288 400 307 q 395 271 400 277 z "},"h":{"ha":507,"x_min":-91,"x_max":507,"o":"m 505 285 q 298 -9 343 38 q 275 -19 293 -19 q 209 20 240 -18 q 167 104 168 60 q 191 205 165 149 q 308 410 245 324 l 307 411 q -4 62 54 142 q -27 16 -20 39 q -30 -8 -24 8 q -43 -5 -35 -11 q -91 66 -88 28 q -64 144 -90 102 l 245 648 q 298 779 289 719 q 294 799 298 791 q 294 803 293 802 q 301 803 297 806 q 397 674 399 738 q 374 620 397 651 l 114 269 q 114 267 113 267 q 117 267 115 266 l 365 511 q 376 521 372 518 q 389 517 381 524 l 389 517 q 460 453 425 491 q 467 430 468 444 q 457 406 467 418 q 309 203 351 277 q 244 47 247 95 l 250 47 q 490 294 288 57 q 502 301 498 304 q 507 294 507 300 q 505 285 507 290 z "},"i":{"ha":285,"x_min":-72,"x_max":374,"o":"m 373 685 q 361 663 370 675 q 208 524 262 567 l 194 513 q 189 511 191 511 q 180 514 184 511 q 184 543 172 517 q 283 731 248 671 q 297 745 290 742 q 302 746 298 746 q 315 742 307 746 q 369 704 336 728 q 373 685 374 696 m 297 297 q 88 3 164 102 q 49 -20 72 -19 q -19 18 12 -18 q -69 110 -65 54 q -38 217 -72 140 q 141 496 15 340 q 152 499 145 500 q 167 494 156 500 q 228 430 224 449 q 218 412 229 425 q 80 220 134 313 q 5 42 4 90 q 12 39 9 39 q 22 42 16 39 q 275 301 132 129 l 282 309 q 289 312 285 312 q 296 311 292 312 q 297 297 302 305 z "},"j":{"ha":307,"x_min":-389,"x_max":479,"o":"m 479 704 q 464 681 476 694 q 315 537 368 578 q 300 529 307 529 q 292 533 296 529 q 293 556 285 538 q 389 758 359 715 q 404 766 393 766 q 414 765 408 766 q 467 730 441 753 q 479 704 479 719 m 317 418 q 308 406 316 411 q 279 369 289 384 l 237 305 q 182 216 199 247 q 60 -4 161 179 q -66 -214 7 -100 l -76 -229 q -151 -304 -104 -274 q -250 -335 -202 -338 q -382 -258 -330 -330 q -384 -244 -389 -248 q -377 -245 -381 -243 q -313 -269 -349 -267 q -165 -178 -241 -270 q -20 47 -114 -115 l 153 349 l 152 351 l 0 159 q -9 152 -4 152 q -20 156 -15 152 q -19 178 -30 165 l 221 480 q 237 491 225 490 q 259 486 244 495 q 317 418 323 445 z "},"k":{"ha":490,"x_min":-100,"x_max":468,"o":"m 463 389 q 349 240 461 320 q 212 189 275 189 q 182 191 195 189 l 175 193 q 260 107 210 145 q 343 65 302 65 q 358 68 353 65 q 420 123 384 80 q 429 127 423 127 q 437 125 433 127 q 438 107 445 118 q 327 -1 391 41 q 275 -18 304 -16 q 184 49 236 -14 q 92 187 160 73 q -14 33 28 107 q -37 -22 -22 7 q -58 -12 -46 -23 l -88 22 q -99 60 -100 33 q -88 90 -99 73 l 167 483 q 293 716 267 637 q 301 764 304 750 q 300 769 300 766 q 302 776 300 772 q 315 776 305 781 q 347 753 321 772 q 396 678 389 722 q 368 594 401 647 q 236 400 269 438 l 236 399 q 321 465 271 429 q 387 495 362 495 q 446 455 423 484 q 463 389 468 426 m 395 460 q 213 328 321 446 q 136 241 193 305 q 159 239 146 239 q 285 298 210 239 q 395 460 372 369 z "},"l":{"ha":285,"x_min":-68,"x_max":369,"o":"m 365 671 q 349 635 363 655 l 189 408 q 117 300 164 374 q 22 104 37 174 q 28 39 14 62 q 214 203 66 33 l 301 304 q 305 308 302 308 q 312 307 309 308 l 315 302 q 312 296 313 300 q 117 15 163 68 q 57 -15 95 -16 q 11 3 43 -18 l -28 27 q -62 107 -57 50 q -37 231 -68 161 q 27 345 -23 259 q 186 595 28 347 q 244 693 231 667 q 263 783 267 728 q 262 789 262 785 q 275 802 262 804 q 345 743 309 796 q 365 671 369 708 z "},"m":{"ha":696,"x_min":-72,"x_max":720,"o":"m 711 292 l 521 22 q 469 -22 496 -22 q 420 4 441 -22 l 388 45 q 370 107 370 66 q 419 235 365 156 l 480 323 l 477 324 q 214 24 244 77 q 206 -4 205 8 q 198 -23 210 -20 q 172 -8 186 -22 l 148 24 q 138 53 138 37 q 149 95 138 76 l 294 353 q 5 30 94 146 q -16 -28 -1 1 q -39 -12 -26 -30 q -66 58 -65 22 q -34 144 -72 83 l 104 368 l 103 369 l 35 293 q -42 199 4 259 q -52 195 -46 195 q -58 198 -54 195 q -58 216 -66 205 q 159 483 4 296 q 170 490 163 490 q 241 435 182 490 q 251 415 251 427 q 247 397 251 407 l 140 233 l 141 232 l 361 465 q 382 481 372 481 q 393 477 388 481 q 446 414 429 449 q 444 370 458 391 l 349 233 l 351 232 q 578 465 525 419 q 587 472 582 472 q 604 465 595 472 q 646 415 631 438 q 654 393 654 406 q 642 362 654 377 q 496 170 604 315 q 434 39 427 76 q 544 127 458 34 q 697 305 654 248 q 704 311 700 311 q 711 308 708 311 q 711 292 720 305 z "},"n":{"ha":510,"x_min":-58,"x_max":548,"o":"m 545 294 q 338 5 391 68 q 296 -19 317 -19 q 254 4 281 -19 l 222 26 q 193 90 194 46 q 304 327 191 148 l 301 330 q 145 165 194 217 q 5 -4 8 18 q -4 -23 5 -12 q -20 -15 -12 -22 q -47 22 -42 7 q -53 47 -53 33 q -42 92 -53 73 l 113 368 l 111 369 l 43 293 q -34 199 12 259 q -50 198 -43 193 q -52 216 -58 205 q 167 483 22 308 q 184 487 172 494 q 223 464 199 479 q 255 435 247 449 q 263 416 263 427 q 259 397 263 408 q 155 232 180 267 q 160 229 156 227 q 332 410 227 290 l 387 471 q 408 490 399 490 q 427 481 415 492 q 484 425 472 442 q 491 410 491 419 q 484 391 491 399 q 263 45 300 165 q 271 43 267 43 q 528 302 315 42 q 540 308 532 312 q 548 301 548 307 q 545 294 548 298 z "},"o":{"ha":380,"x_min":-69,"x_max":343,"o":"m 335 319 q 286 174 343 266 q 37 -15 170 -14 q -5 3 3 -11 q -66 106 -61 26 q -56 187 -69 138 q 41 363 -31 279 q 239 492 144 484 q 319 420 290 496 q 311 404 321 410 q 297 408 304 403 q 286 412 290 414 q 83 252 184 387 q 3 60 3 146 q 7 28 3 41 q 18 24 8 26 q 117 85 47 20 q 189 175 141 109 q 273 362 266 283 q 269 380 273 369 q 260 385 266 391 q 266 388 262 388 q 335 319 335 391 z "},"p":{"ha":486,"x_min":-228,"x_max":471,"o":"m 415 227 q 323 92 381 161 q 174 -4 240 -5 q 106 38 142 -3 q 65 96 91 54 q -126 -201 -34 -46 q -148 -260 -151 -241 q -151 -274 -145 -270 q -183 -263 -157 -279 q -212 -237 -203 -248 q -224 -202 -221 -227 q -174 -87 -228 -170 l 91 319 l 90 320 l -4 201 q -12 197 -8 197 q -24 202 -20 197 q -22 216 -27 209 q 168 469 64 319 q 193 536 189 499 q 191 545 193 541 q 197 551 190 549 q 225 540 202 552 q 275 490 270 517 q 270 445 281 464 l 245 401 q 368 490 260 415 q 401 488 384 502 q 452 452 438 467 q 471 393 471 430 q 415 227 471 334 m 388 449 q 175 270 288 416 q 87 125 163 254 q 104 87 87 115 q 132 65 111 77 q 190 94 157 64 q 316 258 262 160 q 388 449 378 370 z "},"q":{"ha":468,"x_min":-43,"x_max":427,"o":"m 420 263 q 98 -227 224 -5 l 214 -130 q 233 -132 224 -122 q 233 -153 244 -144 q 41 -338 84 -292 q 15 -354 28 -351 q -5 -336 5 -354 q -39 -269 -43 -304 q 26 -148 -30 -236 l 250 206 l 245 209 q 96 19 156 99 q 39 -24 66 -22 q -20 26 18 -31 q -43 90 -42 58 q 38 293 -38 186 q 194 453 104 388 q 290 509 255 498 q 298 511 293 511 q 323 502 308 511 q 387 397 363 467 q 384 382 391 384 q 372 392 380 378 l 358 412 q 326 408 355 416 q 39 84 141 336 q 35 61 34 71 l 37 60 q 254 270 99 107 l 327 347 q 353 354 334 366 q 412 307 368 345 q 427 285 427 298 q 420 263 427 273 z "},"r":{"ha":385,"x_min":-84,"x_max":395,"o":"m 385 278 q 194 15 262 103 q 144 -18 165 -22 q 45 103 45 23 q 76 197 45 151 q 235 404 174 342 l 236 408 l 235 410 q 115 368 161 376 l -49 149 q -71 140 -60 140 q -84 149 -84 140 q -83 156 -84 152 l 87 380 q 64 457 58 406 q 126 571 71 513 q 151 585 136 585 q 174 576 161 585 q 212 529 206 559 q 202 498 216 521 l 198 492 q 180 465 193 484 l 183 460 l 231 471 q 266 465 244 473 q 339 381 343 422 q 327 358 338 372 q 214 208 304 330 q 123 41 123 87 q 274 180 152 49 q 372 290 327 237 q 385 297 378 301 q 385 278 395 292 z "},"s":{"ha":336,"x_min":-125,"x_max":365,"o":"m 365 431 q 354 414 363 425 q 202 126 258 308 q 64 -15 160 -11 q -7 16 39 -14 q -53 66 -53 45 q -39 77 -53 77 q -33 76 -37 77 q 18 61 -11 62 q 80 102 46 60 q 152 252 113 156 q 217 407 209 389 l 216 408 l 148 338 q 47 229 90 278 l -91 72 q -118 69 -103 58 q -125 83 -125 76 q -118 99 -125 91 l 243 524 q 260 528 250 532 q 269 522 263 526 q 349 457 296 500 q 365 431 365 444 z "},"t":{"ha":349,"x_min":-61,"x_max":353,"o":"m 349 461 q 334 446 353 453 q 228 427 271 430 q 18 65 41 199 q 27 34 16 45 q 47 38 34 31 q 216 190 114 72 l 338 331 q 349 332 343 336 q 347 321 353 328 q 199 102 293 245 q 72 -19 121 -19 q -8 22 43 -24 q -46 73 -33 43 q -56 146 -61 96 q -14 263 -50 194 q 85 420 14 315 l 87 422 q 9 437 42 423 q 5 445 4 438 q 16 450 4 448 q 117 465 38 458 q 221 620 145 507 q 241 674 241 650 q 240 678 241 677 q 245 685 239 684 q 262 680 248 686 q 338 598 327 650 q 315 532 345 568 l 267 473 q 332 469 283 472 q 349 461 347 468 z "},"u":{"ha":521,"x_min":-49,"x_max":552,"o":"m 543 324 q 543 307 552 320 q 338 8 395 95 q 298 -16 323 -15 q 229 22 254 -11 q 205 99 205 54 q 236 227 205 146 l 233 228 q 79 -7 125 50 q 45 -16 65 -20 q -1 20 19 -8 l -12 35 q -43 148 -49 77 q 83 397 -37 239 l 144 479 q 149 499 149 486 q 155 509 146 506 q 183 499 161 514 q 231 431 224 471 q 214 385 235 410 q 47 132 99 274 q 34 50 30 83 q 38 52 34 49 l 388 469 q 395 480 389 479 q 406 476 397 483 q 467 425 449 442 q 473 400 475 415 q 450 361 471 381 l 389 279 q 294 62 285 140 l 296 61 q 526 319 449 213 q 543 324 532 328 z "},"v":{"ha":437,"x_min":-39,"x_max":449,"o":"m 439 391 q 296 202 449 319 q 81 -7 100 54 q 62 -28 75 -28 q 31 -9 50 -30 l -1 26 q -37 100 -34 61 q -39 117 -39 107 q 39 309 -39 175 q 80 412 77 373 q 79 460 81 434 q 79 468 77 464 q 91 469 80 473 q 170 408 137 450 q 179 359 183 392 q 146 277 175 319 l 102 210 q 37 60 49 132 q 39 33 34 45 l 41 34 q 134 145 58 62 q 353 461 312 339 q 350 492 359 480 q 350 498 347 496 q 358 496 353 500 q 439 391 431 454 z "},"w":{"ha":669,"x_min":-62,"x_max":692,"o":"m 692 437 q 618 300 692 385 q 506 186 593 270 q 408 95 473 156 q 313 -14 363 52 q 297 -19 308 -19 q 214 106 227 1 q 254 264 206 171 l 251 266 q 56 -5 119 76 q 22 -27 41 -24 q -56 71 -38 -20 q -58 96 -57 83 q -16 233 -62 152 q 49 338 -15 236 q 99 446 91 406 q 96 468 99 460 q 98 475 94 472 q 113 472 102 480 q 160 433 141 452 q 187 370 190 408 q 159 296 186 339 q 71 172 114 224 q 12 50 15 92 q 293 368 95 134 l 354 439 q 368 449 358 449 q 377 446 372 449 l 427 410 q 445 381 445 400 q 438 361 445 370 q 290 57 309 176 q 294 42 289 45 q 480 264 446 220 q 612 514 606 430 q 605 544 613 532 q 604 548 604 547 q 609 555 604 555 q 618 551 613 555 q 692 437 690 511 z "},"x":{"ha":521,"x_min":-45,"x_max":528,"o":"m 522 264 q 324 16 400 77 q 285 -4 305 -3 q 222 16 262 -5 l 193 33 q 142 129 145 58 q 144 175 141 155 q 38 23 61 107 q 47 -2 35 7 q 58 -12 58 -11 q 45 -22 60 -20 q -16 -3 16 -26 q -41 41 -38 12 q 30 151 -45 94 q 149 217 83 191 q 236 410 180 339 l 235 410 q 87 269 144 340 q 90 269 88 267 l 111 274 q 121 273 118 277 q 71 229 129 260 q 61 228 66 228 q 50 231 56 228 q 8 298 24 248 q 22 334 5 315 q 170 437 103 401 q 233 468 172 438 q 263 473 244 475 q 326 433 282 472 q 335 406 338 422 q 326 381 334 400 q 275 266 296 311 q 407 395 355 320 q 453 488 446 452 q 454 495 453 494 q 463 494 457 496 q 513 410 514 465 q 481 357 509 380 q 256 218 382 271 q 233 115 233 156 q 258 45 232 52 q 506 273 317 65 q 518 277 513 281 q 522 264 528 274 z "},"y":{"ha":450,"x_min":-227,"x_max":496,"o":"m 490 392 q 486 389 490 392 q 468 370 483 387 q 260 50 376 270 l 136 -186 q -91 -387 27 -392 q -218 -313 -161 -384 q -222 -300 -227 -304 q -214 -301 -218 -297 q -151 -324 -183 -324 q -136 -326 -144 -326 q 69 -115 -38 -326 l 247 235 l 244 236 q 190 148 233 217 q 80 -3 123 42 q 42 -20 60 -24 q -26 38 -1 -3 q -50 107 -38 54 q 31 302 -50 187 q 72 359 41 317 q 137 450 113 412 q 153 484 151 471 q 156 496 152 490 q 168 494 159 500 q 218 456 190 479 q 232 404 240 438 q 216 374 232 395 l 85 210 q 28 87 31 141 q 33 49 27 61 q 250 290 109 125 l 391 456 q 414 472 400 473 q 427 465 419 472 q 487 418 471 444 q 496 403 496 410 q 490 392 496 397 z "},"z":{"ha":468,"x_min":-229,"x_max":469,"o":"m 469 395 q 460 374 469 387 q 222 239 396 298 l 103 198 q 255 175 208 197 q 420 241 309 199 q 435 236 431 244 q 438 232 438 235 q 425 220 438 227 l 274 149 q 282 92 283 126 q 109 -152 277 -41 q -126 -241 -15 -233 q -212 -193 -184 -245 q -224 -141 -229 -171 q -174 -76 -227 -117 q -99 -24 -160 -66 q -18 28 -77 -9 l 103 98 q 195 149 148 123 q 33 168 160 165 q 11 182 18 164 l -1 237 q -4 248 -4 243 q 12 267 -4 263 q 407 431 282 345 l 406 434 q 161 351 323 408 q 125 346 137 346 q 69 420 85 346 q 75 457 62 454 q 88 458 77 461 q 122 453 96 453 q 186 457 129 453 q 422 483 377 471 q 448 476 439 484 q 469 395 467 448 m 229 126 q 91 52 171 96 q -161 -111 -52 -28 q -190 -148 -195 -137 q -170 -152 -183 -152 q -92 -138 -144 -152 q 229 126 212 -26 z "},"{":{"ha":174,"x_min":-50,"x_max":324,"o":"m 312 831 q 294 833 304 833 q 222 780 243 833 l 138 476 q 71 415 122 419 q 102 357 102 393 q 98 328 102 343 l 14 24 q 11 7 11 15 q 64 -65 11 -46 q 66 -79 66 -72 q 42 -96 66 -99 q -50 16 -50 -87 q -43 69 -50 45 l 33 343 q 38 381 38 362 q 18 420 38 415 q 14 433 9 423 q 23 438 16 441 q 75 498 57 434 l 151 772 q 262 882 180 882 q 309 869 283 882 q 324 850 324 863 q 312 831 324 841 z "},"|":{"ha":434,"x_min":-87,"x_max":463,"o":"m 460 381 q 448 368 457 373 q 9 102 123 163 q 214 111 137 114 q 323 65 289 115 q 331 34 331 50 q 309 3 328 4 q 297 16 298 1 l 293 26 q 239 60 279 56 q 72 27 186 64 l 9 7 q -18 3 -3 3 q -43 20 -31 5 q -83 96 -75 60 q -87 104 -87 100 q -76 119 -87 113 q 359 422 233 354 l 235 385 q 109 358 141 359 q 54 380 72 357 q 42 427 43 399 q 50 480 41 457 q 60 487 53 487 q 81 479 65 486 q 172 453 141 453 q 245 456 199 453 q 399 477 359 463 q 416 477 410 481 q 427 464 423 473 l 458 399 q 460 381 463 388 z "},"}":{"ha":302,"x_min":-71,"x_max":304,"o":"m 298 731 l 222 457 q 216 419 216 433 q 236 380 216 385 q 240 368 244 377 q 231 361 237 358 q 179 302 197 366 l 103 28 q -8 -81 73 -81 q -56 -69 -30 -81 q -71 -52 -71 -62 q -58 -31 -71 -41 q -41 -33 -50 -33 q 33 20 11 -33 l 117 324 q 184 384 133 381 q 153 444 153 406 q 157 471 153 456 l 241 774 q 243 793 243 784 q 190 865 243 846 q 187 879 187 872 q 212 897 187 899 q 304 784 304 887 q 298 731 304 750 z "},"~":{"ha":332,"x_min":14,"x_max":334,"o":"m 332 307 q 327 300 331 301 q 309 307 320 298 q 292 317 298 316 q 206 300 277 320 q 104 275 127 277 q 43 308 69 274 q 16 376 20 338 q 18 382 14 381 q 26 377 22 384 q 34 369 31 370 q 42 366 37 368 q 114 366 65 359 q 222 381 176 381 q 332 307 334 381 z "},"":{"ha":363,"x_min":-73,"x_max":363,"o":"m 363 677 q 300 625 359 628 q 250 675 251 624 q 308 730 248 727 q 363 677 362 732 m 255 490 q 218 385 255 452 q 119 225 206 365 q 22 68 100 195 q 11 15 11 41 q 14 -9 11 3 q 15 -15 15 -12 q 5 -18 15 -20 q -73 87 -71 16 q -16 202 -71 130 q 77 326 11 236 q 206 536 174 460 q 208 566 212 549 q 206 570 206 567 q 208 574 206 572 q 217 571 210 576 q 255 490 254 543 z "},"":{"ha":416,"x_min":146,"x_max":532,"o":"m 529 688 q 522 650 532 661 q 509 646 521 647 q 412 639 467 650 l 408 639 q 270 450 324 526 q 456 517 355 460 q 476 515 472 526 q 461 483 481 507 q 254 387 350 385 q 233 395 245 388 q 187 288 187 319 l 187 263 q 175 305 175 277 q 178 331 175 323 q 206 412 178 345 q 167 488 174 441 q 161 530 161 507 q 346 711 146 642 q 416 727 370 719 q 477 811 457 784 q 496 849 486 821 q 499 850 498 852 q 502 849 500 850 q 517 800 517 829 l 517 788 l 496 751 q 480 731 492 747 q 517 724 507 732 q 529 688 526 715 m 338 614 q 205 468 195 556 q 227 452 203 457 q 247 486 233 464 q 338 614 267 515 z "},"":{"ha":586,"x_min":-7,"x_max":671,"o":"m 448 365 l 321 349 q 236 199 269 245 q 118 95 183 123 q 178 83 138 95 q 423 24 365 24 q 477 50 457 28 q 484 56 480 56 q 488 52 488 56 q 492 18 492 34 q 420 -58 492 -52 q 224 8 363 -64 q 61 52 153 43 q 16 47 49 53 q 9 46 12 46 q -5 64 -5 46 q 0 73 -7 69 q 46 95 16 87 q 167 239 94 119 q 218 335 195 285 q 176 331 212 335 q 110 351 134 327 q 92 403 91 378 q 107 408 92 415 q 237 391 127 391 l 244 391 q 563 743 415 719 q 600 731 579 746 q 667 663 644 697 q 671 654 671 659 q 663 637 671 646 q 545 537 579 571 q 529 532 538 528 q 528 545 522 534 q 581 646 563 620 q 345 391 444 551 q 438 393 391 391 q 475 376 468 395 q 464 366 479 370 l 448 365 z "},"":{"ha":426,"x_min":-87,"x_max":475,"o":"m 475 618 q 463 601 475 610 q 334 514 377 551 l 324 506 q 317 506 320 502 q 320 517 313 509 q 412 629 388 606 q 411 631 412 631 q 155 467 286 613 q 229 469 209 468 q 260 453 250 471 q 264 444 266 446 q 258 442 263 441 q 245 442 254 444 l 118 425 q 76 361 99 399 q 195 363 145 361 q 224 349 214 365 q 227 342 228 345 q 221 340 225 340 q 210 342 217 342 l 57 321 q 31 221 31 264 q 39 180 31 195 q 100 159 57 157 q 324 281 194 163 q 396 361 347 302 q 406 365 400 369 q 408 347 410 362 q 380 267 404 307 q 153 102 283 114 q 27 161 72 94 q -16 260 -12 194 q -14 313 -18 285 q -61 327 -41 311 q -80 370 -81 343 q -68 376 -80 380 q -3 362 -57 366 q 16 411 5 387 q -9 408 -1 408 q -71 427 -49 404 q -85 479 -87 453 q -73 486 -85 491 q 46 467 -53 467 l 49 467 q 199 629 109 556 q 396 724 307 715 q 460 661 423 735 q 461 648 463 652 q 475 618 475 627 z "},"":{"ha":450,"x_min":-509,"x_max":477,"o":"m 201 -4 l 163 -79 q 339 -171 262 -106 q 372 -233 374 -201 q 312 -290 362 -282 q 301 -285 304 -290 l 301 -279 q 298 -256 304 -267 q 136 -137 255 -172 l 134 -137 l 94 -208 q -180 -473 -16 -399 q -319 -509 -251 -506 q -479 -438 -416 -513 q -506 -358 -505 -407 q -395 -160 -509 -256 q -26 -52 -266 -50 q 65 -61 24 -52 l 237 231 l 233 233 l 79 -1 q 49 -22 66 -20 q 4 0 28 -23 l -33 34 q -53 92 -50 50 q 129 449 -61 222 q 145 486 144 471 q 146 494 142 490 q 156 494 149 496 q 220 437 197 472 q 225 404 228 425 q 206 365 222 382 q 24 37 27 175 q 262 320 107 117 l 369 461 q 377 472 372 464 q 384 473 380 473 q 425 453 397 473 q 460 425 442 439 q 469 396 477 411 l 441 359 q 201 -4 282 155 m 42 -113 q -64 -96 14 -95 q -149 -104 -107 -96 q -316 -165 -256 -123 q -458 -376 -458 -266 q -450 -419 -458 -397 q -427 -430 -445 -425 q -387 -435 -418 -431 q 42 -113 -118 -426 z "},"":{"ha":488,"x_min":111,"x_max":391,"o":"m 391 595 q 350 496 391 537 q 251 456 309 456 q 152 496 193 456 q 111 595 111 537 q 152 694 111 654 q 251 735 193 735 q 350 694 309 735 q 391 595 391 654 m 285 646 q 271 673 285 673 q 258 646 258 673 q 271 609 258 609 q 285 646 285 609 m 229 646 q 216 673 229 673 q 202 646 202 673 q 216 609 202 609 q 229 646 229 609 m 350 581 q 312 536 350 552 q 250 522 282 522 q 187 536 217 522 q 149 581 149 552 q 184 528 149 552 q 250 505 220 505 q 315 528 279 505 q 350 581 350 552 z "},"":{"ha":612,"x_min":-92,"x_max":666,"o":"m 663 597 q 655 589 666 594 q 505 540 538 547 q 490 536 495 536 q 481 540 484 536 q 488 551 479 543 l 572 605 q 372 525 425 563 q 540 401 515 479 q 541 382 541 392 q 510 294 541 338 q 319 191 438 194 q 266 197 286 190 l 267 195 q 236 88 274 142 q 46 -15 167 -12 q -76 35 -39 -18 q -90 95 -87 69 q -61 142 -92 119 q -46 148 -54 148 q -33 138 -38 148 q -45 119 -30 132 q -61 85 -61 100 q -60 77 -61 81 q -5 68 -41 66 q 221 191 127 73 q 103 267 228 210 q 49 324 58 288 q 38 368 38 346 q 52 404 38 392 q 321 519 114 463 q 326 521 323 521 q 312 574 312 548 q 324 610 312 598 q 595 726 384 667 q 616 722 605 734 q 654 633 648 684 q 663 597 666 612 m 494 397 q 377 473 502 415 q 365 480 370 476 q 380 427 377 452 q 389 391 392 406 q 382 382 393 388 q 237 335 277 345 q 229 326 235 330 q 212 293 212 308 q 214 283 212 288 q 269 274 233 273 q 494 397 401 279 m 298 399 q 98 319 153 358 q 186 281 149 302 q 183 301 184 288 q 212 349 182 324 q 229 354 222 355 l 298 399 z "},"":{"ha":380,"x_min":130,"x_max":369,"o":"m 369 570 q 317 524 369 528 q 269 570 270 521 q 324 614 273 613 q 369 570 368 616 m 232 570 q 180 524 232 528 q 143 534 156 522 q 132 570 130 545 q 187 614 133 613 q 232 570 232 616 z "},"":{"ha":399,"x_min":-521,"x_max":381,"o":"m 381 300 q 308 201 381 289 q 221 96 264 148 q 161 9 179 41 l 155 -3 q 132 -45 148 -15 q 269 -96 198 -54 q 346 -160 331 -126 q 347 -183 350 -170 q 302 -245 339 -218 q 297 -247 300 -247 q 279 -214 288 -247 q 210 -142 260 -175 q 114 -102 160 -109 l 111 -102 q 87 -148 100 -121 q -178 -453 -26 -366 q -307 -494 -241 -490 q -475 -438 -420 -500 q -515 -340 -511 -406 q -416 -151 -521 -251 q -231 -53 -350 -87 q -19 -24 -127 -24 q 46 -30 9 -24 q 157 152 90 47 q 245 270 179 184 l 241 273 q 145 157 193 216 q 58 35 90 90 q 31 9 45 11 q -37 66 14 12 q -58 122 -56 88 q -45 205 -60 153 q 164 463 -1 351 q 270 514 214 496 q 282 507 274 514 q 346 418 331 465 l 350 393 q 347 384 351 385 q 338 389 343 382 l 321 410 q 313 415 317 414 q 297 412 308 415 q 107 288 218 406 q 4 69 11 186 l 5 68 l 119 182 q 189 250 138 201 l 301 362 q 308 368 302 366 q 354 342 317 369 q 381 300 378 323 m 23 -81 q -60 -73 -14 -73 q -355 -171 -231 -73 q -434 -258 -411 -214 q -467 -332 -458 -293 q -463 -402 -476 -380 q -384 -427 -450 -425 q -115 -281 -254 -431 q -34 -176 -64 -224 q 23 -81 -15 -145 z "},"":{"ha":458,"x_min":39,"x_max":420,"o":"m 418 642 q 420 636 420 640 q 418 629 420 633 q 292 449 407 617 q 266 435 282 435 q 248 441 259 437 q 236 450 244 442 q 212 505 214 472 q 258 633 209 552 l 256 635 q 151 483 225 594 l 138 463 q 123 446 130 449 q 106 450 115 444 q 45 530 47 492 q 119 707 39 608 q 260 812 170 769 l 264 817 q 269 819 266 818 q 274 818 270 821 q 334 745 308 802 q 335 730 336 735 q 334 724 335 726 q 327 728 330 723 l 316 742 q 311 745 315 743 q 304 745 308 746 q 183 669 243 722 q 95 491 99 594 q 96 491 95 490 l 298 708 q 316 708 305 716 l 350 682 q 358 650 369 669 q 260 490 274 537 q 262 486 259 486 q 336 560 286 506 q 408 642 355 582 q 418 642 414 647 m 327 406 l 69 406 l 69 423 l 327 423 l 327 406 z "},"":{"ha":806,"x_min":-1,"x_max":811,"o":"m 806 560 q 688 401 811 481 l 494 275 q 614 232 581 271 q 628 191 628 213 q 617 153 628 171 q 292 -43 476 -27 q 202 3 236 -49 q 194 23 194 15 q 210 33 197 33 q 273 41 239 31 q 557 205 406 57 q 534 213 563 213 q 467 205 511 213 q 399 197 422 197 q 372 217 382 197 l 353 262 q 349 269 349 264 q 358 281 349 275 q 579 434 483 354 q 738 636 718 551 q 305 301 564 610 q 87 -1 195 170 q 83 -20 81 -9 q 80 -36 84 -31 q 71 -41 76 -41 q 31 -18 54 -41 q 3 20 12 1 q -1 31 -1 26 q 0 35 -1 34 q 20 73 0 42 q 164 274 61 137 q 513 632 334 499 q 637 700 587 688 q 688 712 661 712 q 709 709 699 712 q 755 675 731 707 q 806 560 800 644 z "},"":{"ha":376,"x_min":-52,"x_max":548,"o":"m 545 776 q 544 753 548 765 q 416 515 499 631 q 94 218 202 218 q 75 222 81 218 q 18 50 18 103 q 24 22 18 31 q 37 19 30 19 q 75 35 53 19 q 382 353 194 123 q 395 358 388 362 q 399 347 400 354 l 388 332 q 259 148 346 271 q 75 -34 129 -34 q 27 -19 58 -34 q -52 95 -43 3 q 33 369 -52 205 q 407 860 170 635 q 450 868 420 878 q 529 810 492 854 q 543 785 537 807 q 545 776 545 780 m 487 772 q 388 667 446 736 q 90 247 252 507 q 252 391 132 236 q 349 524 294 444 q 487 772 453 677 z "},"":{"ha":411,"x_min":-106,"x_max":438,"o":"m 430 450 q 438 430 438 441 q 425 401 438 415 q 334 262 347 323 q 355 222 328 239 q 355 217 361 221 q 323 205 343 206 q 250 282 252 209 q 269 349 252 317 l 267 350 q 62 132 130 216 q -26 4 26 87 q -39 -26 -35 -26 q -81 7 -54 -28 q -104 53 -103 22 q -68 137 -106 76 l 136 469 q 137 481 140 475 q 138 492 134 488 q 163 487 149 499 q 218 430 187 464 q 231 404 229 418 q 220 381 229 393 l 69 193 l 72 193 l 351 488 q 370 500 361 503 q 385 491 374 500 l 430 450 z "},"":{"ha":502,"x_min":57,"x_max":403,"o":"m 403 473 q 353 352 403 401 q 231 302 302 302 q 108 352 159 302 q 57 473 57 401 q 108 595 57 545 q 231 646 159 646 q 353 595 302 646 q 403 473 403 545 m 381 473 q 337 579 381 536 q 231 623 293 623 q 125 579 168 623 q 81 473 81 536 q 125 368 81 412 q 231 324 170 324 q 337 368 293 324 q 381 473 381 411 z "},"":{"ha":331,"x_min":12,"x_max":304,"o":"m 301 617 l 193 617 l 193 437 l 126 437 l 126 617 l 12 617 l 12 669 l 126 669 l 126 821 l 193 821 l 193 669 l 301 669 l 301 617 m 304 365 l 14 365 l 14 416 l 304 416 l 304 365 z "},"":{"ha":368,"x_min":-4,"x_max":393,"o":"m 384 487 q 393 457 393 473 q 340 378 393 418 q 47 217 174 279 q 152 221 92 225 l 194 218 q 282 244 260 218 q 289 250 286 250 q 296 241 293 250 q 297 220 297 229 q 250 151 297 157 q 199 157 218 151 q 80 171 159 172 q 33 164 60 171 q 27 163 30 163 q 12 172 18 160 l 3 210 q 9 231 -4 222 q 197 336 164 316 q 358 469 319 412 q 315 480 354 484 q 183 442 266 476 l 194 441 q 199 437 199 441 q 194 427 201 431 l 159 416 q 151 415 155 415 q 132 439 138 415 q 125 473 129 456 q 138 488 123 481 q 312 540 232 532 q 384 487 373 545 z "},"":{"ha":416,"x_min":-9,"x_max":406,"o":"m 403 487 q 366 412 406 426 q 250 381 290 387 q 332 313 328 374 q 273 208 335 255 q 98 144 194 148 q -7 214 3 140 q 0 250 -9 232 q 5 252 3 252 q 9 250 8 252 l 18 241 q 111 208 39 205 q 309 312 248 212 q 279 342 313 335 q 231 346 260 347 l 195 345 q 171 361 176 339 l 167 378 q 165 387 165 382 q 178 399 165 396 q 373 460 301 422 q 313 477 368 476 q 191 453 264 479 l 205 452 l 208 449 l 205 446 q 164 433 175 435 q 146 484 151 430 q 145 492 145 488 q 161 513 145 506 q 301 540 236 537 q 403 487 395 545 z "},"":{"ha":91,"x_min":-126,"x_max":136,"o":"m 123 730 q 8 600 99 688 q -118 505 -90 505 q -122 507 -121 506 q -119 522 -126 511 q 65 793 -37 650 q 76 803 68 803 q 85 799 80 803 q 121 765 114 776 q 123 730 136 750 z "},"":{"ha":696,"x_min":-31,"x_max":697,"o":"m 696 500 q 578 210 694 362 q 339 0 473 75 q 193 -41 266 -41 q 76 -4 127 -41 q -31 217 -31 72 q 57 479 -31 343 q 357 754 167 648 q 528 812 433 796 q 544 815 536 815 q 587 800 568 815 q 661 699 639 760 q 663 689 663 693 q 642 674 663 675 q 601 671 606 673 q 696 500 697 651 m 519 426 q 433 449 506 449 q 336 441 392 449 q 354 414 362 423 l 294 343 q 519 426 500 362 m 632 563 q 601 635 631 621 q 548 643 583 643 q 252 468 419 643 q 391 487 326 484 q 534 425 522 492 q 433 334 534 368 q 285 307 359 309 q 380 227 320 235 q 430 267 408 222 q 438 271 431 273 q 442 262 444 269 q 357 197 425 209 q 255 298 302 187 q 187 184 187 218 q 189 179 187 182 q 189 176 190 178 q 184 178 187 175 q 160 221 163 202 q 214 313 157 243 q 210 321 210 316 q 218 332 210 328 l 229 338 q 244 349 237 342 l 317 437 q 316 438 316 437 q 201 406 241 420 l 212 397 q 205 395 209 396 l 180 393 q 159 430 164 389 q 57 197 76 339 q 54 161 54 176 q 126 9 54 35 q 210 16 156 -1 q 292 54 233 23 q 574 376 479 190 q 632 563 633 492 z "},"":{"ha":1321,"x_min":0,"x_max":0,"o":""},"":{"ha":244,"x_min":-8,"x_max":235,"o":"m 233 45 q 229 41 233 43 q 155 16 171 19 q 146 15 151 15 q 142 16 144 15 q 146 22 141 19 l 189 49 l 187 49 q 87 9 152 39 q 171 -53 159 -15 q 155 -109 176 -79 q 61 -159 121 -157 q 0 -133 19 -160 q -7 -103 -4 -119 q 8 -80 -8 -92 q 22 -81 18 -73 q 16 -91 23 -85 q 8 -111 5 -103 q 35 -117 18 -118 q 149 -56 102 -114 q 90 -18 152 -46 q 62 11 66 -7 q 57 33 57 23 q 64 52 57 43 q 199 109 95 80 q 203 110 201 110 q 210 107 206 110 q 228 62 225 88 q 233 45 235 52 z "},"":{"ha":202,"x_min":-14,"x_max":216,"o":"m 216 582 q 191 509 216 557 l 121 397 q 53 286 100 366 q 46 251 46 269 q 47 233 46 241 l 47 229 q 41 228 47 225 q -14 300 -14 251 q 30 387 -14 328 q 182 614 129 519 q 183 635 186 625 q 182 637 182 636 q 183 640 182 640 q 190 639 184 643 q 216 582 216 621 z "},"":{"ha":275,"x_min":-30,"x_max":288,"o":"m 282 689 q 247 586 288 652 q 69 450 164 452 q 38 464 47 453 q -5 537 -1 480 q 3 595 -7 559 q 130 779 30 700 q 213 814 172 811 q 270 762 252 817 q 264 750 273 754 q 256 753 260 750 q 247 755 251 757 q 102 642 174 738 q 45 503 45 566 q 54 479 45 481 q 125 522 77 476 q 237 720 225 620 q 229 738 237 722 q 233 738 229 739 q 282 689 282 743 m 228 406 l -30 406 l -30 423 l 228 423 l 228 406 z "},"":{"ha":696,"x_min":-31,"x_max":697,"o":"m 696 500 q 578 210 694 362 q 339 0 473 75 q 193 -41 266 -41 q 76 -4 127 -41 q -31 217 -31 72 q 57 479 -31 343 q 357 754 167 648 q 528 812 433 796 q 544 815 536 815 q 587 800 568 815 q 661 699 639 760 q 663 689 663 693 q 642 674 663 675 q 601 671 606 673 q 696 500 697 651 m 632 563 q 601 635 631 621 q 548 643 583 643 q 349 557 456 643 q 209 420 273 496 q 187 406 197 406 q 180 410 183 406 q 170 427 170 416 q 174 444 170 435 q 95 330 127 400 q 57 197 62 260 q 54 161 54 187 q 126 9 54 35 q 210 16 156 -1 q 292 54 233 23 q 574 376 479 190 q 632 563 633 492 m 526 391 q 366 176 437 262 q 288 129 328 130 q 217 168 251 127 l 186 205 q 165 255 168 225 q 248 442 156 339 q 381 541 307 507 q 385 543 382 543 q 435 495 399 543 q 457 472 444 487 q 468 454 465 460 q 468 446 469 450 q 463 439 467 442 q 403 396 430 418 l 396 391 q 385 380 392 387 q 374 372 377 374 l 368 366 q 358 366 362 362 q 357 374 355 369 q 395 453 374 414 q 393 454 393 453 q 278 353 338 431 q 222 232 229 289 q 233 179 218 198 q 251 176 241 176 q 393 259 305 176 q 506 385 454 316 l 514 396 q 525 399 519 401 q 526 391 529 396 z "},"":{"ha":552,"x_min":0,"x_max":562,"o":"m 270 617 q 266 605 270 612 l 266 605 q 71 293 243 570 q 61 258 68 289 q 50 260 56 255 l 46 264 q 14 309 14 297 q 20 328 14 319 q 184 586 133 494 l 117 537 q 106 540 111 533 q 109 552 102 545 q 220 652 203 636 q 229 654 222 658 q 270 617 270 627 m 556 232 q 507 168 547 178 q 427 165 446 164 q 321 1 345 43 q 319 -19 316 -9 q 316 -26 317 -22 q 309 -24 313 -26 q 274 30 271 -5 q 309 96 275 43 l 350 159 q 267 146 313 157 q 253 142 263 146 q 237 138 243 137 q 229 142 232 140 q 212 186 214 170 q 209 190 209 187 q 221 203 209 195 q 502 406 400 328 q 506 407 503 407 q 515 404 510 407 q 562 358 562 372 q 553 336 562 347 q 456 206 479 241 q 476 205 467 205 q 548 236 517 205 q 553 239 551 239 q 556 232 556 239 m 461 590 q 435 540 460 566 q 141 142 301 368 q 54 -46 53 19 q 58 -72 54 -62 q 57 -81 61 -79 q 45 -80 57 -85 q 8 -1 8 -66 q 85 191 0 62 q 376 609 191 353 q 397 656 395 636 q 414 665 399 670 q 461 590 456 643 m 481 347 l 269 205 q 300 206 274 206 q 382 206 351 208 q 481 347 384 209 z "},"":{"ha":552,"x_min":0,"x_max":583,"o":"m 572 361 q 583 331 583 347 q 533 256 583 294 q 254 103 374 163 q 353 107 296 111 l 393 104 q 477 130 452 104 q 483 134 480 134 q 490 127 487 136 q 491 106 491 115 q 445 41 491 46 q 397 47 416 41 q 285 60 361 61 q 240 53 264 60 q 235 52 237 53 q 221 61 225 50 l 212 98 q 218 117 205 109 q 416 232 319 174 q 549 345 513 290 q 509 354 545 358 q 382 317 467 349 l 392 316 q 399 312 399 316 q 393 304 400 308 l 359 293 q 351 292 355 292 q 338 304 340 292 q 328 347 330 339 q 340 361 326 354 q 505 410 426 403 q 572 361 563 415 m 270 617 q 266 605 270 612 l 266 605 q 71 293 243 570 q 61 258 68 289 q 50 260 56 255 l 46 264 q 14 309 14 297 q 20 328 14 319 q 184 586 133 494 l 117 537 q 106 540 111 533 q 109 552 102 545 q 220 652 203 636 q 229 654 222 658 q 270 617 270 627 m 461 590 q 435 540 460 566 q 141 142 301 368 q 54 -46 53 19 q 58 -72 54 -62 q 57 -81 61 -79 q 45 -80 57 -85 q 8 -1 8 -66 q 85 191 0 62 q 376 609 191 353 q 397 656 395 636 q 414 665 399 670 q 461 590 456 643 z "},"":{"ha":711,"x_min":0,"x_max":697,"o":"m 392 614 q 357 544 397 557 q 247 514 279 518 q 326 449 320 507 q 267 349 326 393 q 102 288 193 292 q 3 355 12 283 q 9 389 0 372 q 14 392 11 392 q 19 389 16 392 l 30 374 q 115 349 50 346 q 302 449 244 353 q 274 477 307 471 q 228 480 255 481 l 194 479 q 172 494 179 473 l 167 511 q 165 518 165 515 q 178 530 165 528 q 363 589 296 552 q 307 605 358 604 q 191 582 259 605 l 203 581 q 205 576 208 579 q 165 563 175 564 q 148 612 152 560 q 163 639 141 632 q 296 665 233 661 q 392 614 388 670 m 597 590 q 571 540 595 566 q 277 142 437 368 q 190 -46 189 19 q 194 -72 190 -62 q 193 -81 197 -79 q 180 -80 191 -84 q 144 -1 144 -66 q 221 191 136 62 q 511 609 327 353 q 533 656 530 636 q 549 665 534 670 q 597 590 591 643 m 692 232 q 643 168 682 178 q 563 165 582 164 q 457 1 480 43 q 454 -19 452 -9 q 452 -26 453 -22 q 445 -24 449 -26 q 410 30 407 -5 q 445 96 411 43 l 486 159 q 403 146 449 157 q 389 142 399 146 q 373 138 378 137 q 365 142 368 140 q 347 186 350 170 q 345 190 345 187 q 357 203 345 195 q 637 406 536 328 q 642 407 639 407 q 651 404 646 407 q 697 358 697 372 q 689 336 697 347 q 591 206 614 241 q 612 205 602 205 q 684 236 652 205 q 689 239 686 239 q 692 232 692 239 m 617 347 l 404 205 q 435 206 410 206 q 518 206 487 208 q 617 347 519 209 z "},"":{"ha":613,"x_min":-57,"x_max":617,"o":"m 613 655 q 593 604 617 629 q 529 579 563 579 q 480 617 480 579 q 564 692 480 685 q 613 655 608 690 m 507 452 q 509 438 509 445 q 411 320 509 377 q 176 217 201 229 q -16 66 30 142 q 58 62 -1 53 q 301 127 182 83 q 419 155 376 156 q 498 46 498 153 l 498 37 q 498 33 499 34 q 494 33 496 31 l 491 34 q 456 34 473 35 q 339 12 393 28 q 160 -30 236 -19 q 92 -39 119 -39 q -26 7 15 -39 q -39 33 -35 18 q -56 102 -56 52 q 57 264 -57 191 q 250 340 109 298 q 416 415 377 380 q 454 486 453 456 q 472 507 454 505 q 507 452 505 503 z "},"":{"ha":1017,"x_min":-178,"x_max":1158,"o":"m 1131 842 q 1133 831 1134 836 q 1130 827 1133 829 q 1115 830 1127 822 q 844 1015 990 910 q 836 1024 836 1017 q 840 1035 836 1028 q 869 1067 868 1067 q 907 1073 888 1084 q 1131 842 994 1023 m 1152 673 q 1138 667 1149 671 q 879 327 997 540 q 955 266 936 301 q 956 259 956 262 q 954 254 956 255 q 941 260 949 251 q 865 302 911 286 q 761 14 761 106 q 773 -33 761 -16 q 780 -45 780 -38 q 773 -49 779 -49 q 760 -46 768 -49 q 685 75 690 -14 q 716 235 680 148 l 746 307 q 528 279 618 296 q 119 -65 285 47 q 49 -110 72 -98 q -28 -136 9 -132 q -107 -100 -69 -141 l -170 -18 q -170 -1 -178 -7 q -165 1 -168 0 q -159 -1 -163 0 q -96 -24 -141 -24 q 245 146 -4 -33 q 374 250 290 178 l 245 224 q 148 212 187 212 q 16 311 83 210 l 5 327 q 7 336 1 334 q 16 336 11 340 q 79 319 37 320 q 241 326 92 319 q 477 339 316 330 l 770 575 q 916 693 819 614 q 1066 800 1021 777 q 1084 792 1072 802 q 1149 707 1130 749 q 1152 673 1158 685 m 981 662 q 975 661 978 663 q 601 346 902 606 q 768 346 688 349 q 979 658 807 414 q 981 662 982 661 z "},"":{"ha":1017,"x_min":-178,"x_max":1206,"o":"m 1200 1038 q 970 814 1149 949 q 959 812 963 812 q 955 815 956 814 q 958 830 951 819 q 1142 1103 1042 960 q 1152 1111 1145 1111 q 1162 1107 1156 1111 q 1206 1057 1206 1070 q 1200 1038 1206 1047 m 1152 673 q 1138 667 1149 671 q 879 327 997 540 q 955 266 936 301 q 956 259 956 262 q 954 254 956 255 q 941 260 949 251 q 865 302 911 286 q 761 14 761 106 q 773 -33 761 -16 q 780 -45 780 -38 q 773 -49 779 -49 q 760 -46 768 -49 q 685 75 690 -14 q 716 235 680 148 l 746 307 q 528 279 618 296 q 119 -65 285 47 q 49 -110 72 -98 q -28 -136 9 -132 q -107 -100 -69 -141 l -170 -18 q -170 -1 -178 -7 q -165 1 -168 0 q -159 -1 -163 0 q -96 -24 -141 -24 q 245 146 -4 -33 q 374 250 290 178 l 245 224 q 148 212 187 212 q 16 311 83 210 l 5 327 q 7 336 1 334 q 16 336 11 340 q 79 319 37 320 q 241 326 92 319 q 477 339 316 330 l 770 575 q 916 693 819 614 q 1066 800 1021 777 q 1084 792 1072 802 q 1149 707 1130 749 q 1152 673 1158 685 m 981 662 q 975 661 978 663 q 601 346 902 606 q 768 346 688 349 q 979 658 807 414 q 981 662 982 661 z "},"":{"ha":1017,"x_min":-178,"x_max":1312,"o":"m 1312 768 q 1308 758 1312 760 q 1297 766 1302 757 q 1069 887 1238 833 q 873 781 958 856 q 867 779 871 777 q 863 784 864 780 q 910 846 863 807 q 1069 937 975 901 q 1096 933 1076 943 q 1312 768 1289 846 m 1152 673 q 1138 667 1149 671 q 879 327 997 540 q 955 266 936 301 q 956 259 956 262 q 954 254 956 255 q 941 260 949 251 q 865 302 911 286 q 761 14 761 106 q 773 -33 761 -16 q 780 -45 780 -38 q 773 -49 779 -49 q 760 -46 768 -49 q 685 75 690 -14 q 716 235 680 148 l 746 307 q 528 279 618 296 q 119 -65 285 47 q 49 -110 72 -98 q -28 -136 9 -132 q -107 -100 -69 -141 l -170 -18 q -170 -1 -178 -7 q -165 1 -168 0 q -159 -1 -163 0 q -96 -24 -141 -24 q 245 146 -4 -33 q 374 250 290 178 l 245 224 q 148 212 187 212 q 16 311 83 210 l 5 327 q 7 336 1 334 q 16 336 11 340 q 79 319 37 320 q 241 326 92 319 q 477 339 316 330 l 770 575 q 916 693 819 614 q 1066 800 1021 777 q 1084 792 1072 802 q 1149 707 1130 749 q 1152 673 1158 685 m 981 662 q 975 661 978 663 q 601 346 902 606 q 768 346 688 349 q 979 658 807 414 q 981 662 982 661 z "},"":{"ha":1017,"x_min":-178,"x_max":1229,"o":"m 1227 875 q 1222 868 1227 869 q 1206 876 1218 867 q 1188 886 1194 884 q 1107 868 1169 890 q 1000 844 1036 845 q 937 879 962 842 q 911 944 918 909 q 914 951 910 949 q 920 949 917 952 q 967 930 930 930 q 1010 935 991 930 q 1154 947 1100 954 q 1227 875 1229 937 m 1152 673 q 1138 667 1149 671 q 879 327 997 540 q 955 266 936 301 q 956 259 956 262 q 954 254 956 255 q 941 260 949 251 q 865 302 911 286 q 761 14 761 106 q 773 -33 761 -16 q 780 -45 780 -38 q 773 -49 779 -49 q 760 -46 768 -49 q 685 75 690 -14 q 716 235 680 148 l 746 307 q 528 279 618 296 q 119 -65 285 47 q 49 -110 72 -98 q -28 -136 9 -132 q -107 -100 -69 -141 l -170 -18 q -170 -1 -178 -7 q -165 1 -168 0 q -159 -1 -163 0 q -96 -24 -141 -24 q 245 146 -4 -33 q 374 250 290 178 l 245 224 q 148 212 187 212 q 16 311 83 210 l 5 327 q 7 336 1 334 q 16 336 11 340 q 79 319 37 320 q 241 326 92 319 q 477 339 316 330 l 770 575 q 916 693 819 614 q 1066 800 1021 777 q 1084 792 1072 802 q 1149 707 1130 749 q 1152 673 1158 685 m 981 662 q 975 661 978 663 q 601 346 902 606 q 768 346 688 349 q 979 658 807 414 q 981 662 982 661 z "},"":{"ha":1017,"x_min":-178,"x_max":1168,"o":"m 1168 888 q 1116 842 1168 846 q 1067 888 1069 840 q 1124 935 1072 930 q 1168 888 1168 933 m 1031 888 q 979 842 1031 846 q 930 888 932 840 q 986 935 935 930 q 1031 888 1031 933 m 1152 673 q 1138 667 1149 671 q 879 327 997 540 q 955 266 936 301 q 956 259 956 262 q 954 254 956 255 q 941 260 949 251 q 865 302 911 286 q 761 14 761 106 q 773 -33 761 -16 q 780 -45 780 -38 q 773 -49 779 -49 q 760 -46 768 -49 q 685 75 690 -14 q 716 235 680 148 l 746 307 q 528 279 618 296 q 119 -65 285 47 q 49 -110 72 -98 q -28 -136 9 -132 q -107 -100 -69 -141 l -170 -18 q -170 -1 -178 -7 q -165 1 -168 0 q -159 -1 -163 0 q -96 -24 -141 -24 q 245 146 -4 -33 q 374 250 290 178 l 245 224 q 148 212 187 212 q 16 311 83 210 l 5 327 q 7 336 1 334 q 16 336 11 340 q 79 319 37 320 q 241 326 92 319 q 477 339 316 330 l 770 575 q 916 693 819 614 q 1066 800 1021 777 q 1084 792 1072 802 q 1149 707 1130 749 q 1152 673 1158 685 m 981 662 q 975 661 978 663 q 601 346 902 606 q 768 346 688 349 q 979 658 807 414 q 981 662 982 661 z "},"":{"ha":1017,"x_min":-178,"x_max":1158,"o":"m 1137 926 q 1117 880 1137 899 q 1070 861 1097 861 q 1023 880 1043 861 q 1004 926 1004 899 q 1023 972 1004 954 q 1070 991 1043 991 q 1117 972 1097 991 q 1137 926 1137 954 m 1152 673 q 1138 667 1149 671 q 879 327 997 540 q 955 266 936 301 q 956 259 956 262 q 954 254 956 255 q 941 260 949 251 q 865 302 911 286 q 761 14 761 106 q 773 -33 761 -16 q 780 -45 780 -38 q 773 -49 779 -49 q 760 -46 768 -49 q 685 75 690 -14 q 716 235 680 148 l 746 307 q 528 279 618 296 q 119 -65 285 47 q 49 -110 72 -98 q -28 -136 9 -132 q -107 -100 -69 -141 l -170 -18 q -170 -1 -178 -7 q -165 1 -168 0 q -159 -1 -163 0 q -96 -24 -141 -24 q 245 146 -4 -33 q 374 250 290 178 l 245 224 q 148 212 187 212 q 16 311 83 210 l 5 327 q 7 336 1 334 q 16 336 11 340 q 79 319 37 320 q 241 326 92 319 q 477 339 316 330 l 770 575 q 916 693 819 614 q 1066 800 1021 777 q 1084 792 1072 802 q 1149 707 1130 749 q 1152 673 1158 685 m 1128 926 q 1112 966 1128 949 q 1072 983 1095 983 q 1030 967 1047 983 q 1013 926 1013 951 q 1030 886 1013 902 q 1072 869 1047 869 q 1112 886 1096 869 q 1128 926 1128 902 m 981 662 q 975 661 978 663 q 601 346 902 606 q 768 346 688 349 q 979 658 807 414 q 981 662 982 661 z "},"":{"ha":1573,"x_min":-178,"x_max":1676,"o":"m 1675 552 q 1656 529 1676 530 q 1550 538 1590 537 q 1531 544 1534 536 q 1539 552 1527 549 q 1596 568 1577 566 q 1444 581 1553 583 q 1138 528 1278 576 q 1514 498 1454 498 l 1527 498 q 1533 499 1530 499 q 1544 490 1539 499 q 1561 427 1558 457 q 1545 403 1567 406 q 1454 384 1538 401 q 1109 274 1301 351 q 833 34 865 176 q 949 1 865 -1 q 986 -1 966 -1 q 1302 73 1133 -1 q 1581 240 1449 137 q 1600 250 1595 251 q 1603 236 1606 250 q 1565 168 1598 201 q 1302 -20 1459 58 q 994 -106 1130 -109 q 795 34 827 -103 q 792 95 785 57 q 822 163 798 127 q 930 269 845 206 q 865 302 902 289 q 761 14 761 106 q 773 -33 761 -16 q 780 -45 780 -38 q 773 -49 779 -49 q 760 -46 768 -49 q 685 75 690 -14 q 716 235 680 148 l 746 307 q 528 279 618 296 q 119 -65 285 47 q 49 -110 72 -98 q -28 -136 9 -132 q -107 -100 -69 -141 l -170 -18 q -170 -1 -178 -7 q -165 1 -168 0 q -159 -1 -163 0 q -96 -24 -141 -24 q 245 146 -4 -33 q 374 250 290 178 l 245 224 q 148 212 187 212 q 16 311 83 210 l 5 327 q 7 336 1 334 q 16 336 11 340 q 79 319 37 320 q 241 326 92 319 q 477 339 316 330 l 770 575 q 916 693 819 614 q 1066 800 1021 777 q 1084 792 1072 802 q 1149 707 1130 749 q 1152 673 1158 685 q 1138 667 1149 671 q 1078 608 1108 640 q 1392 684 1175 658 q 1628 693 1496 696 q 1653 674 1649 697 l 1668 575 q 1675 552 1675 563 m 1398 467 q 1105 473 1253 472 q 1063 490 1069 473 q 1040 551 1044 530 q 1038 562 1038 556 q 879 327 948 453 q 945 279 924 307 q 1177 397 1040 346 q 1398 467 1331 456 m 981 662 q 975 661 978 663 q 601 346 902 606 q 768 346 688 349 q 979 658 807 414 q 981 662 982 661 z "},"":{"ha":628,"x_min":-35,"x_max":663,"o":"m 661 651 q 663 643 663 647 q 646 618 663 632 q 465 496 522 548 l 453 486 q 442 486 446 479 q 441 490 441 487 q 448 502 441 492 q 575 658 536 621 q 574 661 575 659 q 149 351 353 629 q 42 88 42 205 q 53 31 42 52 q 138 0 77 -1 q 453 171 275 4 q 552 282 515 229 q 562 290 556 290 q 570 264 572 290 q 530 152 563 203 q 407 11 472 58 q 247 -76 377 -11 q 171 -100 187 -98 q 163 -102 167 -102 q 160 -100 160 -102 q 163 -95 157 -99 l 187 -80 q 171 -79 179 -79 q 104 -107 123 -94 q 189 -170 176 -132 q 172 -225 194 -195 q 79 -275 138 -274 q 18 -250 35 -277 q 11 -220 11 -236 q 24 -197 9 -209 q 39 -198 34 -190 q 33 -208 41 -202 q 26 -228 22 -220 q 53 -233 35 -235 q 165 -172 119 -231 q 107 -134 170 -163 q 85 -118 95 -129 q 80 -106 81 -111 q 76 -87 76 -95 q 98 -53 76 -66 q 38 4 60 -31 q -23 142 -16 49 q 123 507 -35 317 q 286 665 198 597 q 553 791 435 780 q 560 793 556 793 q 595 770 576 793 q 642 701 627 732 q 644 684 644 690 q 661 651 658 661 z "},"":{"ha":810,"x_min":-80,"x_max":811,"o":"m 574 746 q 575 735 575 739 q 572 731 574 732 q 557 734 568 727 q 286 918 430 817 q 277 929 277 921 q 281 939 277 933 q 315 974 302 964 q 331 982 321 982 q 350 977 340 982 q 574 746 438 925 m 810 552 q 791 529 811 530 q 685 538 724 537 q 666 544 669 536 q 674 552 662 549 q 731 568 712 566 q 579 581 688 583 q 273 528 412 576 q 648 498 589 498 l 662 498 q 667 499 665 499 q 678 490 674 499 q 696 427 693 457 q 682 404 701 408 q 589 384 662 399 q 244 274 438 351 q -33 34 0 176 q 84 1 0 -1 q 121 -1 100 -1 q 437 73 267 -1 q 716 240 583 137 q 735 250 730 251 q 738 236 741 250 q 700 168 732 201 q 437 -20 594 58 q 129 -106 264 -109 q -71 34 -38 -103 q -73 95 -80 57 q -43 163 -68 127 q 117 302 -7 229 q 312 397 212 359 q 533 467 464 456 q 240 473 388 472 q 198 490 203 473 q 175 551 179 530 q 172 562 172 556 q 203 602 172 583 q 526 684 294 656 q 762 693 631 696 q 788 674 784 697 l 803 575 q 810 552 810 563 z "},"":{"ha":810,"x_min":-80,"x_max":818,"o":"m 806 955 q 576 731 753 865 q 566 730 570 728 q 562 732 563 730 q 564 747 556 735 q 749 1019 656 888 q 758 1027 751 1027 q 768 1024 762 1027 q 802 994 798 1000 q 806 955 818 975 m 810 552 q 791 529 811 530 q 685 538 724 537 q 666 544 669 536 q 674 552 662 549 q 731 568 712 566 q 579 581 688 583 q 273 528 412 576 q 648 498 589 498 l 662 498 q 667 499 665 499 q 678 490 674 499 q 696 427 693 457 q 682 404 701 408 q 589 384 662 399 q 244 274 438 351 q -33 34 0 176 q 84 1 0 -1 q 121 -1 100 -1 q 437 73 267 -1 q 716 240 583 137 q 735 250 730 251 q 738 236 741 250 q 700 168 732 201 q 437 -20 594 58 q 129 -106 264 -109 q -71 34 -38 -103 q -73 95 -80 57 q -43 163 -68 127 q 117 302 -7 229 q 312 397 212 359 q 533 467 464 456 q 240 473 388 472 q 198 490 203 473 q 175 551 179 530 q 172 562 172 556 q 203 602 172 583 q 526 684 294 656 q 762 693 631 696 q 788 674 784 697 l 803 575 q 810 552 810 563 z "},"":{"ha":810,"x_min":-80,"x_max":948,"o":"m 948 701 q 944 692 948 693 q 933 700 939 690 q 705 821 875 766 q 510 715 594 789 q 503 712 507 711 q 499 718 499 712 q 547 780 499 741 q 705 871 612 834 q 732 867 712 876 q 948 701 925 780 m 810 552 q 791 529 811 530 q 685 538 724 537 q 666 544 669 536 q 674 552 662 549 q 731 568 712 566 q 579 581 688 583 q 273 528 412 576 q 648 498 589 498 l 662 498 q 667 499 665 499 q 678 490 674 499 q 696 427 693 457 q 680 403 701 406 q 589 384 673 401 q 244 274 435 351 q -33 34 0 176 q 84 1 0 -1 q 121 -1 100 -1 q 437 73 267 -1 q 716 240 583 137 q 735 250 730 251 q 738 236 741 250 q 700 168 732 201 q 437 -20 594 58 q 129 -106 264 -109 q -71 34 -38 -103 q -73 95 -80 57 q -43 163 -68 127 q 117 302 -7 229 q 312 397 212 359 q 533 467 464 456 q 240 473 388 472 q 198 490 203 473 q 175 551 179 530 q 172 562 172 556 q 203 602 172 583 q 526 684 294 656 q 762 693 631 696 q 788 674 784 697 l 803 575 q 810 552 810 563 z "},"":{"ha":810,"x_min":-80,"x_max":811,"o":"m 735 770 q 684 724 735 728 q 635 770 636 722 q 692 817 639 812 q 735 770 735 815 m 598 770 q 547 724 598 728 q 498 770 499 722 q 553 817 502 812 q 598 770 598 815 m 810 552 q 791 529 811 530 q 685 538 724 537 q 666 544 669 536 q 674 552 662 549 q 731 568 712 566 q 579 581 688 583 q 273 528 412 576 q 648 498 589 498 l 662 498 q 667 499 665 499 q 678 490 674 499 q 696 427 693 457 q 680 403 701 406 q 589 384 673 401 q 244 274 435 351 q -33 34 0 176 q 84 1 0 -1 q 121 -1 100 -1 q 437 73 267 -1 q 716 240 583 137 q 735 250 730 251 q 738 236 741 250 q 700 168 732 201 q 437 -20 594 58 q 129 -106 264 -109 q -71 34 -38 -103 q -73 95 -80 57 q -43 163 -68 127 q 117 302 -7 229 q 312 397 212 359 q 533 467 464 456 q 240 473 388 472 q 198 490 203 473 q 175 551 179 530 q 172 562 172 556 q 203 602 172 583 q 526 684 294 656 q 762 693 631 696 q 788 674 784 697 l 803 575 q 810 552 810 563 z "},"":{"ha":696,"x_min":-87,"x_max":860,"o":"m 609 837 q 610 826 612 830 q 608 821 610 822 q 594 823 605 817 q 321 1009 467 906 q 313 1019 313 1012 q 317 1028 313 1023 q 351 1063 339 1055 q 368 1072 358 1072 q 387 1066 377 1072 q 609 837 473 1016 m 853 684 q 454 176 635 368 q 64 -79 262 -71 q -77 -27 -15 -81 q -87 -14 -87 -20 q -76 -1 -87 -1 q -49 -9 -73 -1 q -7 -18 -24 -16 q 342 198 153 -24 q 712 726 557 453 q 296 574 534 731 q 149 395 172 492 q 158 385 148 388 q 171 376 168 382 q 159 362 172 365 q 148 359 153 359 q 109 378 127 359 q 64 431 80 407 q 57 452 57 439 q 358 699 60 574 q 754 796 570 787 q 784 779 762 796 q 848 727 833 750 q 860 704 860 718 q 853 684 860 693 z "},"":{"ha":696,"x_min":-87,"x_max":860,"o":"m 627 985 q 396 761 576 898 q 385 760 389 760 q 381 762 382 761 q 384 777 377 766 q 568 1048 468 910 q 579 1058 571 1058 q 589 1054 583 1058 q 624 1020 614 1032 q 627 985 639 1005 m 853 684 q 454 176 635 368 q 64 -79 262 -71 q -77 -27 -15 -81 q -87 -14 -87 -20 q -76 -1 -87 -1 q -49 -9 -73 -1 q -7 -18 -24 -16 q 342 198 153 -24 q 712 726 557 453 q 296 574 534 731 q 149 395 172 492 q 158 385 148 388 q 171 376 168 382 q 159 362 172 365 q 148 359 153 359 q 109 378 127 359 q 64 431 80 407 q 57 452 57 439 q 358 699 60 574 q 754 796 570 787 q 784 779 762 796 q 848 727 833 750 q 860 704 860 718 q 853 684 860 693 z "},"":{"ha":696,"x_min":-87,"x_max":949,"o":"m 949 785 q 945 776 949 777 q 935 784 940 774 q 707 905 876 850 q 511 799 595 873 q 505 796 509 795 q 500 802 500 796 q 547 864 500 825 q 707 955 610 918 q 734 951 713 960 q 949 785 926 864 m 853 684 q 454 176 635 368 q 64 -79 262 -71 q -77 -27 -15 -81 q -87 -14 -87 -20 q -76 -1 -87 -1 q -49 -9 -73 -1 q -7 -18 -24 -16 q 342 198 153 -24 q 712 726 557 453 q 296 574 534 731 q 149 395 172 492 q 158 385 148 388 q 171 376 168 382 q 159 362 172 365 q 148 359 153 359 q 109 378 127 359 q 64 431 80 407 q 57 452 57 439 q 358 699 60 574 q 754 796 570 787 q 784 779 762 796 q 848 727 833 750 q 860 704 860 718 q 853 684 860 693 z "},"":{"ha":696,"x_min":-87,"x_max":873,"o":"m 873 888 q 822 842 873 846 q 773 888 774 840 q 829 935 777 930 q 873 888 873 933 m 735 888 q 684 842 735 846 q 635 888 636 840 q 692 935 639 930 q 735 888 735 933 m 853 684 q 454 176 635 368 q 64 -79 262 -71 q -77 -27 -15 -81 q -87 -14 -87 -20 q -76 -1 -87 -1 q -49 -9 -73 -1 q -7 -18 -24 -16 q 342 198 153 -24 q 712 726 557 453 q 296 574 534 731 q 149 395 172 492 q 158 385 148 388 q 171 376 168 382 q 159 362 172 365 q 148 359 153 359 q 109 378 127 359 q 64 431 80 407 q 57 452 57 439 q 358 699 60 574 q 754 796 570 787 q 784 779 762 796 q 848 727 833 750 q 860 704 860 718 q 853 684 860 693 z "},"":{"ha":1005,"x_min":-80,"x_max":1020,"o":"m 1005 454 q 840 156 1020 296 q 521 -9 707 53 q 233 -57 382 -56 q -9 34 79 -58 q -52 117 -45 71 q -54 137 -54 126 q 53 271 -54 212 q 227 328 138 319 q 282 396 251 359 l 137 393 q 113 407 114 389 q 122 457 118 448 q 167 479 133 476 q 349 473 227 484 q 475 612 425 564 q 30 519 285 612 q 33 515 26 517 l 68 506 q 79 498 79 503 q 71 491 79 492 q -15 488 26 483 q -60 528 -39 492 q -77 587 -77 559 q -80 593 -80 590 q -54 616 -80 605 q 564 719 193 722 q 769 688 663 719 q 958 579 898 651 q 1005 454 998 532 m 954 503 q 736 601 920 574 q 544 613 635 616 l 544 613 q 578 578 551 608 q 586 555 586 567 q 532 492 586 544 q 495 457 522 483 q 678 427 590 444 q 690 415 694 422 q 609 404 690 406 q 438 400 524 401 q 369 324 415 374 q 483 274 442 309 q 511 236 494 264 q 511 220 514 227 q 502 213 510 217 q 490 218 498 213 l 479 229 q 431 256 458 244 q 374 275 416 263 q 328 279 342 281 l 327 278 q 237 161 290 241 q 174 64 221 137 q 172 34 163 46 q 537 110 316 28 q 935 388 863 231 q 956 479 956 435 q 954 503 956 492 m 168 252 q 0 113 -9 187 q 145 34 11 33 q 84 115 87 72 q 96 149 83 138 q 110 167 102 155 l 168 252 z "},"":{"ha":836,"x_min":-24,"x_max":1005,"o":"m 955 817 q 949 810 954 811 q 932 817 943 808 q 914 827 921 826 q 833 810 897 831 q 727 785 762 787 q 666 818 692 784 q 639 886 643 848 q 640 892 636 891 q 649 887 644 894 q 656 879 654 880 q 665 876 659 878 q 736 876 688 869 q 845 891 799 891 q 955 817 956 891 m 997 674 q 1005 663 1005 670 q 994 642 1005 652 q 637 87 652 286 q 682 -1 632 9 q 694 -11 694 -3 q 682 -19 696 -19 q 541 122 559 1 q 825 618 533 307 l 822 620 q 313 127 449 281 q 212 -12 225 27 q 195 -53 210 -31 q 175 -34 184 -56 l 145 33 q 140 61 140 45 q 153 117 140 91 q 460 553 208 220 q 563 694 491 597 q 563 699 564 697 q 557 700 562 701 q 71 363 346 625 q 92 357 79 358 q 99 353 99 357 q 65 338 99 338 q 30 351 43 338 q -22 438 -8 391 q -24 448 -24 442 q -7 476 -24 464 q 335 690 189 617 q 476 750 406 726 q 517 758 500 758 q 589 726 560 758 q 608 666 608 713 q 587 576 608 628 q 431 334 555 492 l 433 331 q 880 735 742 605 l 891 747 q 925 751 906 764 q 997 674 971 712 z "},"":{"ha":696,"x_min":-31,"x_max":697,"o":"m 483 850 q 484 840 486 844 q 481 836 484 837 q 468 838 479 831 q 195 1023 338 922 q 187 1032 187 1025 q 191 1043 187 1036 q 225 1078 214 1070 q 241 1086 232 1086 q 260 1081 251 1086 q 483 850 347 1029 m 696 500 q 578 210 694 362 q 339 0 473 75 q 193 -41 266 -41 q 76 -4 127 -41 q -31 217 -31 72 q 57 479 -31 343 q 357 754 167 648 q 528 812 433 796 q 544 815 536 815 q 587 800 568 815 q 661 699 639 760 q 663 689 663 693 q 642 674 663 675 q 601 671 606 673 q 696 500 697 651 m 632 563 q 601 635 631 621 q 548 643 583 643 q 349 557 456 643 q 209 420 273 496 q 187 406 197 406 q 180 410 183 406 q 170 427 170 416 q 174 444 170 435 q 95 330 127 400 q 57 197 62 260 q 54 161 54 187 q 126 9 54 35 q 210 16 156 -1 q 292 54 233 23 q 574 376 479 190 q 632 563 633 492 z "},"":{"ha":696,"x_min":-31,"x_max":697,"o":"m 491 955 q 262 731 438 865 q 251 730 255 728 q 247 732 248 730 q 250 747 241 735 q 434 1019 342 888 q 444 1027 437 1027 q 453 1024 448 1027 q 487 994 483 1000 q 491 955 503 975 m 696 500 q 578 210 694 362 q 339 0 473 75 q 193 -41 266 -41 q 76 -4 127 -41 q -31 217 -31 72 q 57 479 -31 343 q 357 754 167 648 q 528 812 433 796 q 544 815 536 815 q 587 800 568 815 q 661 699 639 760 q 663 689 663 693 q 642 674 663 675 q 601 671 606 673 q 696 500 697 651 m 632 563 q 601 635 631 621 q 548 643 583 643 q 349 557 456 643 q 209 420 273 496 q 187 406 197 406 q 180 410 183 406 q 170 427 170 416 q 174 444 170 435 q 95 330 127 400 q 57 197 62 260 q 54 161 54 187 q 126 9 54 35 q 210 16 156 -1 q 292 54 233 23 q 574 376 479 190 q 632 563 633 492 z "},"":{"ha":696,"x_min":-31,"x_max":753,"o":"m 753 788 q 747 779 753 781 q 738 787 743 777 q 509 907 680 853 q 315 802 399 876 q 308 799 312 798 q 304 804 304 799 q 350 867 302 827 q 509 958 418 922 q 536 954 517 962 q 753 788 730 867 m 696 500 q 578 210 694 362 q 339 0 473 75 q 193 -41 266 -41 q 76 -4 127 -41 q -31 217 -31 72 q 57 479 -31 343 q 357 754 167 648 q 528 812 433 796 q 544 815 536 815 q 587 800 568 815 q 661 699 639 760 q 663 689 663 693 q 642 674 663 675 q 601 671 606 673 q 696 500 697 651 m 632 563 q 601 635 631 621 q 548 643 583 643 q 349 557 456 643 q 209 420 273 496 q 187 406 197 406 q 180 410 183 406 q 170 427 170 416 q 174 444 170 435 q 95 330 127 400 q 57 197 62 260 q 54 161 54 187 q 126 9 54 35 q 210 16 156 -1 q 292 54 233 23 q 574 376 479 190 q 632 563 633 492 z "},"":{"ha":696,"x_min":-31,"x_max":697,"o":"m 646 901 q 640 895 644 897 q 627 899 633 894 q 605 913 618 910 q 521 895 585 917 q 418 871 452 871 q 330 971 351 864 q 332 978 327 975 q 336 977 335 979 q 357 962 343 964 q 427 962 381 952 q 572 974 521 981 q 646 901 647 964 m 696 500 q 578 210 694 362 q 339 0 473 75 q 193 -41 266 -41 q 76 -4 127 -41 q -31 217 -31 72 q 57 479 -31 343 q 357 754 167 648 q 528 812 433 796 q 544 815 536 815 q 587 800 568 815 q 661 699 639 760 q 663 689 663 693 q 642 674 663 675 q 601 671 606 673 q 696 500 697 651 m 632 563 q 601 635 631 621 q 548 643 583 643 q 349 557 456 643 q 209 420 273 496 q 187 406 197 406 q 180 410 183 406 q 170 427 170 416 q 174 444 170 435 q 95 330 127 400 q 57 197 62 260 q 54 161 54 187 q 126 9 54 35 q 210 16 156 -1 q 292 54 233 23 q 574 376 479 190 q 632 563 633 492 z "},"":{"ha":696,"x_min":-31,"x_max":697,"o":"m 637 909 q 586 863 637 865 q 537 909 538 860 q 593 954 541 949 q 637 909 637 952 m 499 909 q 448 863 499 865 q 399 909 400 860 q 456 954 403 949 q 499 909 499 952 m 696 500 q 578 210 694 362 q 339 0 473 75 q 193 -41 266 -41 q 76 -4 127 -41 q -31 217 -31 72 q 57 479 -31 343 q 357 754 167 648 q 528 812 433 796 q 544 815 536 815 q 587 800 568 815 q 661 699 639 760 q 663 689 663 693 q 642 674 663 675 q 601 671 606 673 q 696 500 697 651 m 632 563 q 601 635 631 621 q 548 643 583 643 q 349 557 456 643 q 209 420 273 496 q 187 406 197 406 q 180 410 183 406 q 170 427 170 416 q 174 444 170 435 q 95 330 127 400 q 57 197 62 260 q 54 161 54 187 q 126 9 54 35 q 210 16 156 -1 q 292 54 233 23 q 574 376 479 190 q 632 563 633 492 z "},"":{"ha":647,"x_min":-81,"x_max":789,"o":"m 789 810 l 648 648 q 696 500 697 605 q 578 210 694 361 q 339 0 473 75 q 195 -39 267 -39 q 76 -5 132 -39 l -30 -126 l -81 -84 l 28 41 q -31 217 -31 115 q 57 479 -31 343 q 357 754 167 648 q 528 812 433 796 q 544 815 536 815 q 640 741 593 815 l 738 852 l 789 810 m 632 563 q 620 616 632 578 l 102 23 q 126 9 111 15 q 210 16 156 -1 q 292 54 233 23 q 574 376 479 190 q 632 563 632 490 m 555 643 q 349 557 461 647 q 209 420 273 496 q 187 406 197 406 q 180 410 183 406 q 170 427 170 416 q 174 444 170 435 q 57 197 77 353 q 65 83 49 137 l 555 643 z "},"":{"ha":817,"x_min":-60,"x_max":991,"o":"m 761 798 q 764 787 764 791 q 761 783 762 784 q 746 785 757 779 q 473 970 595 882 q 469 989 458 975 q 503 1028 491 1017 q 538 1027 515 1039 q 761 798 625 978 m 985 610 q 982 608 985 610 q 954 579 979 605 q 643 57 643 266 q 694 -38 643 -9 q 707 -49 709 -39 q 692 -52 707 -53 q 555 114 572 -35 q 624 320 545 193 q 715 457 689 426 l 712 460 l 374 60 q 304 -26 354 34 q 239 -64 275 -60 q 175 -33 203 -64 q 130 24 136 11 q 102 100 106 56 q 151 258 98 152 q 430 590 227 408 q 530 684 456 613 q 541 711 544 696 q 53 475 321 678 l 100 475 q 110 468 107 477 q 99 452 113 460 q 35 430 62 434 q -8 456 18 425 q -54 533 -39 505 q -39 564 -60 552 q 480 779 277 754 q 575 734 537 785 q 602 670 601 707 q 538 545 610 624 q 194 15 256 235 q 509 308 237 11 l 872 705 q 890 719 879 719 q 909 711 898 719 q 983 637 954 677 q 991 624 991 631 q 985 610 991 616 z "},"":{"ha":817,"x_min":-60,"x_max":991,"o":"m 924 955 q 694 731 871 865 q 684 730 688 728 q 680 732 681 730 q 682 747 674 735 q 867 1019 774 888 q 876 1027 869 1027 q 886 1024 880 1027 q 920 994 916 1000 q 924 955 936 975 m 985 610 q 982 608 985 610 q 954 579 979 605 q 643 57 643 266 q 694 -38 643 -9 q 707 -49 709 -39 q 692 -52 707 -53 q 555 114 572 -35 q 624 320 545 193 q 715 457 689 426 l 712 460 l 374 60 q 304 -26 354 34 q 239 -64 275 -60 q 175 -33 203 -64 q 130 24 136 11 q 102 100 106 56 q 151 258 98 152 q 430 590 227 408 q 530 684 456 613 q 541 711 544 696 q 53 475 321 678 l 100 475 q 110 468 107 477 q 99 452 113 460 q 35 430 62 434 q -8 456 18 425 q -54 533 -39 505 q -39 564 -60 552 q 480 779 277 754 q 575 734 537 785 q 602 670 601 707 q 538 545 610 624 q 194 15 256 235 q 509 308 237 11 l 872 705 q 890 719 879 719 q 909 711 898 719 q 983 637 954 677 q 991 624 991 631 q 985 610 991 616 z "},"":{"ha":817,"x_min":-60,"x_max":1008,"o":"m 1008 788 q 1004 779 1008 781 q 993 787 998 777 q 765 907 935 853 q 570 802 654 876 q 563 799 567 798 q 559 804 560 800 q 606 867 559 827 q 765 958 673 922 q 792 954 772 963 q 1008 788 985 867 m 985 610 q 982 608 985 610 q 954 579 979 605 q 643 57 643 266 q 694 -38 643 -9 q 707 -49 709 -39 q 692 -52 707 -53 q 555 114 572 -35 q 624 320 545 193 q 715 457 689 426 l 712 460 l 374 60 q 304 -26 354 34 q 239 -64 275 -60 q 175 -33 203 -64 q 130 24 136 11 q 102 100 106 56 q 151 258 98 152 q 430 590 227 408 q 530 684 456 613 q 541 711 544 696 q 53 475 321 678 l 100 475 q 110 468 107 477 q 99 452 113 460 q 35 430 62 434 q -8 456 18 425 q -54 533 -39 505 q -39 564 -60 552 q 480 779 277 754 q 575 734 537 785 q 602 670 601 707 q 538 545 610 624 q 194 15 256 235 q 509 308 237 11 l 872 705 q 890 719 879 719 q 909 711 898 719 q 983 637 954 677 q 991 624 991 631 q 985 610 991 616 z "},"":{"ha":817,"x_min":-60,"x_max":991,"o":"m 853 849 q 802 803 853 807 q 753 849 754 800 q 810 895 757 891 q 853 849 853 894 m 716 849 q 665 803 716 807 q 616 849 617 800 q 671 895 620 891 q 716 849 716 894 m 985 610 q 982 608 985 610 q 954 579 979 605 q 643 57 643 266 q 694 -38 643 -9 q 707 -49 709 -39 q 692 -52 707 -53 q 555 114 572 -35 q 624 320 545 193 q 715 457 689 426 l 712 460 l 374 60 q 304 -26 354 34 q 239 -64 275 -60 q 175 -33 203 -64 q 130 24 136 11 q 102 100 106 56 q 151 258 98 152 q 430 590 227 408 q 530 684 456 613 q 541 711 544 696 q 53 475 321 678 l 100 475 q 110 468 107 477 q 99 452 113 460 q 35 430 62 434 q -8 456 18 425 q -54 533 -39 505 q -39 564 -60 552 q 480 779 277 754 q 575 734 537 785 q 602 670 601 707 q 538 545 610 624 q 194 15 256 235 q 509 308 237 11 l 872 705 q 890 719 879 719 q 909 711 898 719 q 983 637 954 677 q 991 624 991 631 q 985 610 991 616 z "},"":{"ha":849,"x_min":-397,"x_max":998,"o":"m 944 916 q 713 692 894 826 q 703 690 708 689 q 699 693 700 690 q 701 708 693 696 q 886 979 777 826 q 897 987 888 987 q 906 985 901 987 q 941 951 935 960 q 944 916 956 936 m 991 637 q 998 625 998 633 q 987 605 998 617 q 693 202 779 361 l 543 -79 q 792 -278 789 -138 q 720 -355 783 -350 q 704 -347 707 -357 q 703 -343 703 -346 q 704 -335 703 -339 q 704 -323 707 -332 q 513 -129 678 -179 q 83 -572 349 -446 q -151 -635 -33 -627 q -387 -498 -327 -646 q -397 -437 -397 -471 q -274 -208 -397 -324 q 221 -31 -100 -43 q 433 -47 323 -27 l 650 335 q 647 336 648 336 l 374 18 q 307 -15 346 -15 q 241 28 278 -19 q 203 110 205 76 q 236 231 201 156 q 521 575 311 387 q 595 665 586 633 l 598 670 l 590 669 q 174 362 418 640 l 209 362 q 217 358 217 363 q 212 346 220 351 l 138 313 q 129 312 134 312 q 96 330 114 312 q 53 396 61 376 q 49 407 49 403 q 62 431 49 418 q 572 724 305 670 q 614 704 589 727 l 632 681 q 647 636 648 669 q 581 503 646 587 q 480 384 530 444 l 458 358 q 335 197 377 260 q 293 68 286 103 q 677 434 490 217 q 873 677 817 595 q 906 701 887 701 q 920 697 913 701 q 991 637 967 667 m 406 -104 q 248 -88 336 -88 q -43 -138 84 -88 q -203 -227 -125 -170 q -358 -467 -365 -342 q -216 -568 -351 -574 q -1 -515 -107 -564 q 406 -104 244 -403 z "},"":{"ha":818,"x_min":-33,"x_max":910,"o":"m 909 613 q 910 597 910 605 q 787 415 910 510 q 587 301 696 346 q 304 251 456 247 q 247 335 285 247 l 214 288 q 85 -4 85 99 q 94 -45 85 -27 q 95 -49 94 -46 q 92 -60 96 -56 q 73 -57 91 -64 q 12 68 14 -33 q 11 90 11 77 q 125 368 11 198 l 298 625 q 68 556 168 595 l 98 547 q 104 541 103 544 q 95 536 103 537 q 54 530 69 530 q -30 618 -16 530 q -33 629 -33 624 q 1 665 -33 650 q 389 758 159 732 q 566 1009 491 905 q 598 1082 595 1051 q 624 1093 600 1103 q 700 974 690 1058 q 662 897 700 936 q 564 770 613 834 l 564 770 q 781 743 690 770 q 909 613 903 707 m 863 604 q 860 613 865 609 q 628 665 807 665 q 477 656 560 665 q 294 403 380 525 l 320 406 q 331 400 331 407 q 323 387 332 395 l 290 358 q 764 492 589 355 q 863 604 837 551 z "},"":{"ha":609,"x_min":-118,"x_max":693,"o":"m 689 560 q 571 401 693 487 l 331 235 q 442 247 410 247 q 498 232 484 247 q 511 191 511 213 q 500 153 511 171 q 175 -43 359 -27 q 85 3 119 -49 q 77 23 77 15 q 94 33 80 33 q 156 41 122 31 q 441 205 289 57 q 418 213 446 213 q 350 205 395 213 q 282 197 305 197 q 255 217 266 197 l 236 262 q 232 269 232 264 q 241 281 232 275 q 463 434 366 354 q 621 636 601 551 q 189 301 448 610 q -30 -1 79 170 q -34 -20 -35 -9 q -37 -36 -33 -31 q -46 -41 -41 -41 q -85 -18 -62 -41 q -114 20 -104 1 q -118 31 -118 26 q -117 35 -118 34 q -96 73 -117 42 q 47 274 -56 137 q 396 632 217 499 q 521 700 471 688 q 571 712 544 712 q 593 709 582 712 q 639 675 614 707 q 689 560 684 644 z "},"":{"ha":458,"x_min":-66,"x_max":464,"o":"m 389 518 q 391 507 392 511 q 388 503 391 505 q 373 506 384 499 q 102 690 240 590 q 94 701 94 693 q 96 711 94 705 q 126 743 111 727 q 165 749 146 760 q 389 518 252 699 m 458 264 q 457 248 464 258 q 283 -1 427 208 q 247 -20 270 -22 q 222 -14 231 -20 q 206 -1 217 -12 q 171 75 174 30 q 236 254 167 141 l 233 254 q 168 168 201 212 q 87 45 122 107 l 71 16 q 50 -7 60 -3 q 26 -1 39 -9 q -58 110 -54 58 q 43 354 -66 217 q 240 502 115 442 q 251 510 235 502 q 259 509 254 511 q 340 407 305 486 q 343 385 345 395 q 340 378 343 381 q 331 384 335 377 l 316 403 q 309 408 315 406 q 300 407 305 408 q 133 301 218 377 q 9 56 15 197 q 14 56 11 53 l 292 357 q 317 357 302 369 l 363 320 q 380 293 380 307 q 349 240 380 283 q 240 54 258 114 q 241 49 237 49 q 345 151 270 71 q 445 264 362 170 q 458 264 452 271 z "},"":{"ha":458,"x_min":-66,"x_max":464,"o":"m 365 749 q 134 525 315 662 q 123 524 127 522 q 119 526 121 524 q 122 541 115 530 q 307 812 206 674 q 317 821 309 821 q 327 818 321 821 q 359 788 343 803 q 365 749 376 768 m 458 264 q 457 248 464 258 q 283 -1 427 208 q 247 -20 270 -22 q 222 -14 231 -20 q 206 -1 217 -12 q 171 75 174 30 q 236 254 167 141 l 233 254 q 168 168 201 212 q 87 45 122 107 l 71 16 q 50 -7 60 -3 q 26 -1 39 -9 q -58 110 -54 58 q 43 354 -66 217 q 240 502 115 442 q 251 510 235 502 q 259 509 254 511 q 340 407 305 486 q 343 385 345 395 q 340 378 343 381 q 331 384 335 377 l 316 403 q 309 408 315 406 q 300 407 305 408 q 133 301 218 377 q 9 56 15 197 q 14 56 11 53 l 292 357 q 317 357 302 369 l 363 320 q 380 293 380 307 q 349 240 380 283 q 240 54 258 114 q 241 49 237 49 q 345 151 270 71 q 445 264 362 170 q 458 264 452 271 z "},"":{"ha":458,"x_min":-66,"x_max":484,"o":"m 458 264 q 457 248 464 258 q 283 -1 427 208 q 247 -20 270 -22 q 222 -14 231 -20 q 206 -1 217 -12 q 171 75 174 30 q 236 254 167 141 l 233 254 q 168 168 201 212 q 87 45 122 107 l 71 16 q 50 -7 60 -3 q 26 -1 39 -9 q -58 110 -54 58 q 43 354 -66 217 q 240 502 115 442 q 251 510 235 502 q 259 509 254 511 q 340 407 305 486 q 343 385 345 395 q 340 378 343 381 q 331 384 335 377 l 316 403 q 309 408 315 406 q 300 407 305 408 q 133 301 218 377 q 9 56 15 197 q 14 56 11 53 l 292 357 q 317 357 302 369 l 363 320 q 380 293 380 307 q 349 240 380 283 q 240 54 258 114 q 241 49 237 49 q 345 151 270 71 q 445 264 362 170 q 458 264 452 271 m 484 519 q 480 510 484 511 q 472 518 479 509 q 279 646 425 589 q 115 534 186 613 q 110 529 113 529 q 106 536 106 530 q 145 602 104 560 q 279 699 203 662 q 301 694 286 703 q 484 519 465 602 z "},"":{"ha":458,"x_min":-66,"x_max":465,"o":"m 464 582 q 458 576 463 578 q 445 579 452 574 q 423 594 435 591 q 349 578 400 598 q 236 552 298 551 q 174 586 201 548 q 148 651 153 621 q 151 658 145 656 q 159 650 149 656 q 174 642 170 643 q 245 642 202 633 q 391 654 342 659 q 464 582 465 644 m 458 264 q 457 248 464 258 q 283 -1 427 208 q 247 -20 270 -22 q 222 -14 231 -20 q 206 -1 217 -12 q 171 75 174 30 q 236 254 167 141 l 233 254 q 168 168 201 212 q 87 45 122 107 l 71 16 q 50 -7 60 -3 q 26 -1 39 -9 q -58 110 -54 58 q 43 354 -66 217 q 240 502 115 442 q 251 510 235 502 q 259 509 254 511 q 340 407 305 486 q 343 385 345 395 q 340 378 343 381 q 331 384 335 377 l 316 403 q 309 408 315 406 q 300 407 305 408 q 133 301 218 377 q 9 56 15 197 q 14 56 11 53 l 292 357 q 317 357 302 369 l 363 320 q 380 293 380 307 q 349 240 380 283 q 240 54 258 114 q 241 49 237 49 q 345 151 270 71 q 445 264 362 170 q 458 264 452 271 z "},"":{"ha":458,"x_min":-66,"x_max":464,"o":"m 381 594 q 330 548 381 551 q 281 594 282 545 q 338 639 285 635 q 381 594 381 637 m 244 594 q 193 548 244 551 q 144 594 145 545 q 199 639 148 635 q 244 594 244 637 m 458 264 q 457 248 464 258 q 283 -1 427 208 q 247 -20 270 -22 q 222 -14 231 -20 q 206 -1 217 -12 q 171 75 174 30 q 236 254 167 141 l 233 254 q 168 168 201 212 q 87 45 122 107 l 71 16 q 50 -7 60 -3 q 26 -1 39 -9 q -58 110 -54 58 q 43 354 -66 217 q 240 502 115 442 q 251 510 235 502 q 259 509 254 511 q 340 407 305 486 q 343 385 345 395 q 340 378 343 381 q 331 384 335 377 l 316 403 q 309 408 315 406 q 300 407 305 408 q 133 301 218 377 q 9 56 15 197 q 14 56 11 53 l 292 357 q 317 357 302 369 l 363 320 q 380 293 380 307 q 349 240 380 283 q 240 54 258 114 q 241 49 237 49 q 345 151 270 71 q 445 264 362 170 q 458 264 452 271 z "},"":{"ha":389,"x_min":-71,"x_max":373,"o":"m 369 275 q 292 170 343 243 q 236 54 264 132 l 233 43 q 225 -12 233 19 q 202 -1 217 -16 q 168 75 171 30 q 232 254 165 142 l 229 254 q 136 123 165 171 q 46 -7 57 -1 q 22 -1 35 -9 q -62 110 -58 58 q 41 354 -71 217 q 237 502 114 444 q 247 510 240 505 q 255 509 250 511 q 330 423 304 476 q 339 385 340 400 q 336 378 340 381 q 313 401 331 377 q 305 408 311 407 q 296 407 301 408 q 129 301 214 377 q 7 56 11 197 q 9 56 7 54 l 288 357 q 313 357 298 369 q 355 320 353 326 q 373 292 373 308 q 369 275 373 282 z "},"":{"ha":628,"x_min":-42,"x_max":654,"o":"m 538 127 q 411 -9 450 18 q 373 -20 397 -19 q 247 52 309 -16 q 214 127 217 77 q 232 222 209 163 l 164 126 q 111 49 148 104 l 94 19 q 75 -4 85 1 q 50 3 64 -7 q -34 114 -30 61 q 68 358 -42 222 q 264 505 137 444 q 274 513 273 513 q 283 511 277 515 q 365 410 351 468 l 366 406 l 373 411 q 502 495 448 471 q 515 490 506 496 q 585 408 557 460 q 600 366 610 396 q 545 286 587 331 q 426 217 481 217 q 368 259 401 220 q 289 80 289 165 q 324 27 289 45 q 412 69 355 26 q 633 286 555 178 q 650 294 642 297 q 654 286 654 292 q 538 127 644 259 m 543 384 q 376 267 426 340 q 400 259 384 259 q 449 275 420 259 q 543 384 499 312 m 351 392 q 334 411 346 400 q 324 410 330 411 q 157 305 241 380 q 34 58 39 201 q 38 58 35 56 l 316 359 q 324 365 320 363 l 351 392 z "},"":{"ha":392,"x_min":-64,"x_max":396,"o":"m 392 307 q 194 41 285 148 q 149 -1 167 9 q 160 -39 160 -30 q 156 -43 160 -41 q 88 -65 104 -62 q 81 -66 84 -66 q 77 -65 79 -66 q 81 -61 77 -64 l 119 -37 l 118 -35 q 28 -72 87 -45 q 104 -127 92 -92 q 91 -176 107 -148 q 4 -222 54 -221 q -50 -199 -34 -224 q -57 -172 -53 -191 q -43 -152 -57 -163 q -31 -153 -35 -146 q -37 -161 -30 -156 q -43 -180 -46 -174 q -19 -184 -34 -184 q 83 -129 41 -182 q 31 -95 87 -122 q 5 -69 9 -87 q 1 -52 1 -60 q 56 -7 1 -28 q 9 30 27 9 l -28 76 q -54 138 -52 103 q 47 370 -64 248 q 213 492 118 448 q 217 494 214 494 q 228 491 221 494 q 279 434 250 476 q 286 425 285 431 q 320 384 300 425 q 320 374 323 378 q 313 365 319 369 q 239 312 255 326 l 231 305 q 203 282 222 298 l 197 275 q 184 275 190 271 q 182 286 180 278 q 229 382 203 335 l 228 384 q 85 259 160 357 q 16 109 26 182 q 30 45 11 66 q 52 39 39 39 q 366 300 155 39 l 378 312 q 389 316 384 319 q 392 307 396 313 z "},"":{"ha":372,"x_min":-62,"x_max":378,"o":"m 346 509 q 347 498 349 503 q 345 494 347 495 q 331 496 342 490 q 58 681 203 579 q 50 690 50 684 q 54 701 50 694 q 87 736 77 730 q 122 739 102 751 q 346 509 209 689 m 263 127 q 136 -9 175 18 q 98 -20 122 -19 q -28 52 34 -16 q -61 127 -58 77 q -62 149 -62 138 q 98 411 -62 270 q 227 495 157 464 q 240 490 231 496 q 309 408 282 460 q 324 366 335 396 q 270 286 312 331 q 151 217 206 217 q 92 259 126 220 q 14 80 14 165 q 49 27 14 45 q 137 69 80 26 q 358 286 279 178 q 374 294 366 297 q 378 286 378 292 q 263 127 369 259 m 267 384 q 100 267 151 340 q 125 259 109 259 q 174 275 145 259 q 267 384 224 312 z "},"":{"ha":372,"x_min":-62,"x_max":378,"o":"m 330 743 q 100 519 279 654 q 90 518 94 518 q 84 521 85 519 q 87 536 80 525 q 271 807 170 663 q 282 817 274 817 q 292 812 286 817 q 327 779 319 789 q 330 743 342 764 m 263 127 q 136 -9 175 18 q 98 -20 122 -19 q -28 52 34 -16 q -61 127 -58 77 q -62 149 -62 138 q 98 411 -62 270 q 227 495 157 464 q 240 490 231 496 q 309 408 282 460 q 324 366 335 396 q 270 286 312 331 q 151 217 206 217 q 92 259 126 220 q 14 80 14 165 q 49 27 14 45 q 137 69 80 26 q 358 286 279 178 q 374 294 366 297 q 378 286 378 292 q 263 127 369 259 m 267 384 q 100 267 151 340 q 125 259 109 259 q 174 275 145 259 q 267 384 224 312 z "},"":{"ha":372,"x_min":-62,"x_max":420,"o":"m 420 518 q 418 509 420 510 q 408 517 412 507 q 212 643 358 586 q 45 533 117 610 q 38 529 42 529 q 35 534 37 530 q 76 601 35 559 q 212 696 132 658 q 236 690 218 700 q 420 518 401 601 m 263 127 q 136 -9 175 18 q 98 -20 122 -19 q -28 52 34 -16 q -61 127 -58 77 q -62 149 -62 138 q 98 411 -62 270 q 227 495 157 464 q 240 490 231 496 q 309 408 282 460 q 324 366 335 396 q 270 286 312 331 q 151 217 206 217 q 92 259 126 220 q 14 80 14 165 q 49 27 14 45 q 137 69 80 26 q 358 286 279 178 q 374 294 366 297 q 378 286 378 292 q 263 127 369 259 m 267 384 q 100 267 151 340 q 125 259 109 259 q 174 275 145 259 q 267 384 224 312 z "},"":{"ha":372,"x_min":-62,"x_max":378,"o":"m 342 574 q 290 528 342 532 q 241 574 243 525 q 298 620 245 616 q 342 574 342 618 m 205 574 q 153 528 205 532 q 104 574 106 525 q 160 620 109 616 q 205 574 205 618 m 263 127 q 136 -9 175 18 q 98 -20 122 -19 q -28 52 34 -16 q -61 127 -58 77 q -62 149 -62 138 q 98 411 -62 270 q 227 495 157 464 q 240 490 231 496 q 309 408 282 460 q 324 366 335 396 q 270 286 312 331 q 151 217 206 217 q 92 259 126 220 q 14 80 14 165 q 49 27 14 45 q 137 69 80 26 q 358 286 279 178 q 374 294 366 297 q 378 286 378 292 q 263 127 369 259 m 267 384 q 100 267 151 340 q 125 259 109 259 q 174 275 145 259 q 267 384 224 312 z "},"":{"ha":285,"x_min":-71,"x_max":316,"o":"m 315 518 q 316 507 316 511 q 313 502 315 503 q 298 505 309 498 q 26 690 171 587 q 18 700 18 693 q 22 709 18 704 q 56 745 43 736 q 91 747 68 760 q 315 518 178 699 m 297 297 q 90 3 152 84 q 49 -20 73 -19 q -19 18 14 -18 q -68 110 -64 53 q -38 217 -71 144 q 141 496 15 339 q 152 499 145 500 q 167 494 157 500 q 229 430 224 449 q 218 412 231 426 q 80 220 136 316 q 7 42 5 90 q 14 39 9 39 q 23 42 18 39 q 132 149 60 72 q 275 301 236 262 l 283 309 q 289 312 286 312 q 296 311 293 312 q 297 297 302 305 z "},"":{"ha":285,"x_min":-71,"x_max":302,"o":"m 279 727 q 50 505 231 642 q 39 503 43 502 q 35 506 37 503 q 38 519 31 509 q 222 792 134 670 q 241 796 228 807 q 281 764 270 774 q 279 727 292 750 m 297 297 q 90 3 152 84 q 49 -20 73 -19 q -19 18 14 -18 q -68 110 -64 53 q -38 217 -71 144 q 141 496 15 339 q 152 499 145 500 q 167 494 157 500 q 229 430 224 449 q 218 412 231 426 q 80 220 136 316 q 7 42 5 90 q 14 39 9 39 q 23 42 18 39 q 132 149 60 72 q 275 301 236 262 l 283 309 q 289 312 286 312 q 296 311 293 312 q 297 297 302 305 z "},"":{"ha":285,"x_min":-71,"x_max":403,"o":"m 297 297 q 90 3 152 84 q 49 -20 73 -19 q -19 18 14 -18 q -68 110 -64 53 q -38 217 -71 144 q 141 496 15 339 q 152 499 145 500 q 167 494 157 500 q 229 430 224 449 q 218 412 231 426 q 80 220 136 316 q 7 42 5 90 q 14 39 9 39 q 23 42 18 39 q 132 149 60 72 q 275 301 236 262 l 283 309 q 289 312 286 312 q 296 311 293 312 q 297 297 302 305 m 403 519 q 399 510 403 511 q 391 518 397 509 q 198 646 343 589 q 34 534 104 613 q 28 529 31 529 q 24 536 24 530 q 64 602 23 560 q 198 699 122 662 q 220 694 205 703 q 403 519 384 602 z "},"":{"ha":285,"x_min":-71,"x_max":302,"o":"m 283 574 q 232 528 283 532 q 183 574 184 525 q 239 620 187 616 q 283 574 283 618 m 145 574 q 94 528 145 532 q 45 574 46 525 q 102 620 49 616 q 145 574 145 618 m 297 297 q 90 3 152 84 q 49 -20 73 -19 q -19 18 14 -18 q -68 110 -64 53 q -38 217 -71 144 q 141 496 15 339 q 152 499 145 500 q 167 494 157 500 q 229 430 224 449 q 218 412 231 426 q 80 220 136 316 q 7 42 5 90 q 14 39 9 39 q 23 42 18 39 q 132 149 60 72 q 275 301 236 262 l 283 309 q 289 312 286 312 q 296 311 293 312 q 297 297 302 305 z "},"":{"ha":708,"x_min":22,"x_max":760,"o":"m 758 642 q 751 640 755 640 q 736 640 749 642 l 610 628 q 566 502 598 593 q 495 347 528 397 q 437 258 480 324 q 331 114 415 224 q 212 4 278 45 q 151 -15 180 -15 q 133 -12 142 -15 q 96 -1 109 -8 q 22 187 22 42 q 80 448 22 332 q 283 590 152 591 q 313 574 300 582 q 347 528 343 552 q 357 469 357 506 q 277 231 357 365 q 264 220 270 220 q 258 232 255 220 q 260 240 258 236 q 331 484 331 391 q 281 570 331 570 q 269 568 275 570 q 119 312 180 533 q 96 76 88 199 q 125 23 106 26 q 182 50 148 20 q 491 618 346 160 l 435 614 q 377 624 403 612 q 345 669 343 639 q 361 674 345 678 q 502 659 382 659 l 505 659 q 540 774 519 712 q 581 783 562 783 q 627 754 616 783 q 633 724 633 745 q 621 659 633 697 q 716 662 650 661 q 755 648 742 662 q 758 642 760 644 z "},"":{"ha":510,"x_min":-58,"x_max":548,"o":"m 491 553 q 484 548 490 548 q 472 551 477 545 q 450 566 463 563 q 369 547 434 568 q 263 522 300 524 q 202 556 228 521 q 174 623 180 585 q 176 629 172 628 q 185 624 180 631 q 193 616 190 617 q 201 613 195 614 q 273 613 229 605 q 416 625 368 631 q 491 553 491 616 m 545 294 q 338 5 391 68 q 296 -19 317 -19 q 254 4 281 -19 l 222 26 q 193 90 194 46 q 304 327 191 148 l 301 330 l 145 165 q 5 -4 9 19 q -3 -23 7 -12 q -20 -15 -12 -22 q -47 22 -42 7 q -53 47 -53 33 q -42 92 -53 73 l 113 368 l 111 369 l 43 293 q -34 199 12 259 q -50 198 -43 193 q -52 216 -58 205 q 167 483 22 308 q 184 487 174 494 q 222 464 220 467 q 255 435 244 450 q 263 416 263 427 q 259 397 263 408 q 155 232 180 267 q 160 229 156 227 q 332 410 209 274 l 388 471 q 408 490 399 490 q 427 481 415 492 q 484 425 473 441 q 491 410 491 419 q 484 391 491 399 q 263 45 300 165 q 271 43 267 43 q 528 302 316 42 q 540 308 532 312 q 548 301 548 307 q 545 294 548 298 z "},"":{"ha":380,"x_min":-65,"x_max":354,"o":"m 351 526 q 353 515 354 519 q 350 511 353 513 q 335 514 347 506 q 64 699 210 594 q 56 709 56 701 q 58 719 56 713 q 88 751 73 735 q 127 757 109 768 q 351 526 214 707 m 339 319 q 290 174 347 266 q 41 -15 174 -14 q -1 3 7 -11 q -62 106 -57 26 q -53 187 -65 141 q 45 363 -30 277 q 243 492 148 484 q 323 420 294 496 q 315 404 326 410 q 300 408 307 403 q 290 412 294 414 q 87 252 189 387 q 7 60 7 146 q 11 28 7 41 q 20 24 12 26 q 119 85 50 20 q 191 175 145 109 q 277 362 270 286 q 273 380 277 369 q 264 385 270 391 q 270 388 266 388 q 339 319 339 391 z "},"":{"ha":380,"x_min":-65,"x_max":347,"o":"m 317 720 q 88 498 269 635 q 77 495 81 495 q 73 498 75 496 q 76 513 69 502 q 260 785 172 663 q 279 789 266 800 q 319 757 308 768 q 317 720 330 743 m 339 319 q 290 174 347 266 q 41 -15 174 -14 q -1 3 7 -11 q -62 106 -57 26 q -53 187 -65 141 q 45 363 -30 277 q 243 492 148 484 q 323 420 294 496 q 315 404 326 410 q 300 408 307 403 q 290 412 294 414 q 87 252 189 387 q 7 60 7 146 q 11 28 7 41 q 20 24 12 26 q 119 85 50 20 q 191 175 145 109 q 277 362 270 286 q 273 380 277 369 q 264 385 270 391 q 270 388 266 388 q 339 319 339 391 z "},"":{"ha":380,"x_min":-65,"x_max":484,"o":"m 484 519 q 480 510 484 511 q 472 518 479 509 q 279 646 425 589 q 115 534 186 613 q 110 529 113 529 q 106 536 106 530 q 145 602 104 560 q 279 699 203 662 q 301 694 286 703 q 484 519 465 602 m 339 319 q 290 174 347 266 q 41 -15 174 -14 q -1 3 7 -11 q -62 106 -57 26 q -53 187 -65 141 q 45 363 -30 277 q 243 492 148 484 q 323 420 294 496 q 315 404 326 410 q 300 408 307 403 q 290 412 294 414 q 87 252 189 387 q 7 60 7 146 q 11 28 7 41 q 20 24 12 26 q 119 85 50 20 q 191 175 145 109 q 277 362 270 286 q 273 380 277 369 q 264 385 270 391 q 270 388 266 388 q 339 319 339 391 z "},"":{"ha":380,"x_min":-65,"x_max":395,"o":"m 395 578 q 388 572 393 574 q 372 580 384 571 q 354 590 359 589 q 270 572 334 594 q 167 548 201 548 q 77 647 99 541 q 80 655 76 652 q 85 654 83 656 q 104 639 92 642 q 176 639 129 629 q 320 651 270 658 q 395 578 395 642 m 339 319 q 290 174 347 266 q 41 -15 174 -14 q -1 3 7 -11 q -62 106 -57 26 q -53 187 -65 141 q 45 363 -30 277 q 243 492 148 484 q 323 420 294 496 q 315 404 326 410 q 300 408 307 403 q 290 412 294 414 q 87 252 189 387 q 7 60 7 146 q 11 28 7 41 q 20 24 12 26 q 119 85 50 20 q 191 175 145 109 q 277 362 270 286 q 273 380 277 369 q 264 385 270 391 q 270 388 266 388 q 339 319 339 391 z "},"":{"ha":380,"x_min":-65,"x_max":369,"o":"m 369 570 q 317 524 369 528 q 269 570 270 521 q 324 614 273 613 q 369 570 368 616 m 232 570 q 180 524 232 528 q 143 534 156 522 q 132 570 130 545 q 187 614 133 613 q 232 570 232 616 m 339 319 q 290 174 347 266 q 41 -15 174 -14 q -1 3 7 -11 q -62 106 -57 26 q -53 187 -65 141 q 45 363 -30 277 q 243 492 148 484 q 323 420 294 496 q 315 404 326 410 q 300 408 307 403 q 290 412 294 414 q 87 252 189 387 q 7 60 7 146 q 11 28 7 41 q 20 24 12 26 q 119 85 50 20 q 191 175 145 109 q 277 362 270 286 q 273 380 277 369 q 264 385 270 391 q 270 388 266 388 q 339 319 339 391 z "},"":{"ha":411,"x_min":-9,"x_max":418,"o":"m 258 437 q 199 384 258 388 q 144 437 145 381 q 208 488 149 484 q 258 437 256 487 m 416 321 q 408 320 415 319 q 393 320 403 321 q 100 281 305 305 l 85 279 q 18 299 45 275 q -8 363 -9 323 q 8 372 -8 378 q 153 350 30 351 q 374 353 290 349 q 412 332 397 354 q 416 321 418 326 m 209 197 q 151 144 209 148 q 95 195 96 141 q 159 247 99 243 q 209 197 209 245 z "},"":{"ha":380,"x_min":-96,"x_max":426,"o":"m 426 532 l 301 382 q 339 319 339 366 q 290 174 347 266 q 41 -15 174 -14 q -1 3 8 -11 l -12 8 l -79 -69 l -96 -54 l -31 23 q -62 106 -58 52 q -53 187 -65 141 q 45 363 -30 277 q 243 492 149 484 q 316 437 282 495 l 408 547 l 426 532 m 294 412 l 290 412 q 87 252 189 387 q 7 69 12 155 l 269 380 q 264 385 263 382 q 270 388 266 388 l 274 388 l 294 412 m 275 353 l 9 35 q 20 24 9 31 q 119 85 50 20 q 191 175 142 107 q 275 353 264 277 z "},"":{"ha":521,"x_min":-49,"x_max":552,"o":"m 427 534 q 429 524 430 528 q 426 519 429 521 q 411 522 423 514 q 140 707 293 598 q 132 716 132 709 q 136 727 132 720 q 165 760 164 760 q 203 765 184 776 q 427 534 290 715 m 543 324 q 543 307 552 320 q 338 8 395 95 q 298 -16 323 -15 q 229 22 254 -11 q 205 99 205 54 q 236 227 205 146 l 233 228 q 79 -7 125 50 q 45 -16 65 -20 q -1 20 19 -8 l -12 35 q -43 148 -49 77 q 83 397 -37 239 l 144 479 q 149 499 149 486 q 155 509 146 506 q 183 499 161 514 q 231 431 224 471 q 214 385 235 410 q 47 132 99 274 q 34 50 30 83 q 38 52 34 49 l 388 469 q 395 480 389 479 q 406 476 397 483 q 467 425 449 442 q 473 400 475 415 q 450 361 471 381 l 389 279 q 294 62 285 140 l 296 61 q 526 319 449 213 q 543 324 532 328 z "},"":{"ha":521,"x_min":-49,"x_max":552,"o":"m 524 750 q 294 526 472 661 q 283 525 288 524 q 278 528 279 525 q 282 541 275 530 q 467 814 378 692 q 486 818 472 829 q 521 785 513 796 q 524 750 536 772 m 543 324 q 543 307 552 320 q 338 8 395 95 q 298 -16 323 -15 q 229 22 254 -11 q 205 99 205 54 q 236 227 205 146 l 233 228 q 79 -7 125 50 q 45 -16 65 -20 q -1 20 19 -8 l -12 35 q -43 148 -49 77 q 83 397 -37 239 l 144 479 q 149 499 149 486 q 155 509 146 506 q 183 499 161 514 q 231 431 224 471 q 214 385 235 410 q 47 132 99 274 q 34 50 30 83 q 38 52 34 49 l 388 469 q 395 480 389 479 q 406 476 397 483 q 467 425 449 442 q 473 400 475 415 q 450 361 471 381 l 389 279 q 294 62 285 140 l 296 61 q 526 319 449 213 q 543 324 532 328 z "},"":{"ha":521,"x_min":-49,"x_max":552,"o":"m 543 324 q 543 307 552 320 q 338 8 395 95 q 298 -16 323 -15 q 229 22 254 -11 q 205 99 205 54 q 236 227 205 146 l 233 228 q 79 -7 125 50 q 45 -16 65 -20 q -1 20 19 -8 l -12 35 q -43 148 -49 77 q 83 397 -37 239 l 144 479 q 149 499 149 486 q 155 509 146 506 q 183 499 161 514 q 231 431 224 471 q 214 385 235 410 q 47 132 99 274 q 34 50 30 83 q 38 52 34 49 l 388 469 q 395 480 389 479 q 406 476 397 483 q 467 425 449 442 q 473 400 475 415 q 450 361 471 381 l 389 279 q 294 62 285 140 l 296 61 q 526 319 449 213 q 543 324 532 328 m 525 519 q 521 510 525 511 q 513 518 519 509 q 320 646 465 589 q 156 534 227 613 q 151 529 153 529 q 146 536 146 530 q 186 602 145 560 q 320 699 244 662 q 342 694 327 703 q 525 519 506 602 z "},"":{"ha":521,"x_min":-49,"x_max":552,"o":"m 425 586 q 373 540 425 543 q 336 550 349 538 q 324 586 323 562 q 380 631 326 627 q 425 586 425 629 m 286 586 q 235 540 286 543 q 186 586 187 537 q 241 631 190 627 q 286 586 286 629 m 543 324 q 543 307 552 320 q 338 8 395 95 q 298 -16 323 -15 q 229 22 254 -11 q 205 99 205 54 q 236 227 205 146 l 233 228 q 79 -7 125 50 q 45 -16 65 -20 q -1 20 19 -8 l -12 35 q -43 148 -49 77 q 83 397 -37 239 l 144 479 q 149 499 149 486 q 155 509 146 506 q 183 499 161 514 q 231 431 224 471 q 214 385 235 410 q 47 132 99 274 q 34 50 30 83 q 38 52 34 49 l 388 469 q 395 480 389 479 q 406 476 397 483 q 467 425 449 442 q 473 400 475 415 q 450 361 471 381 l 389 279 q 294 62 285 140 l 296 61 q 526 319 449 213 q 543 324 532 328 z "},"":{"ha":450,"x_min":-227,"x_max":563,"o":"m 490 392 q 486 389 490 392 q 468 370 483 387 q 260 50 376 270 l 136 -186 q -91 -387 27 -392 q -218 -313 -161 -384 q -222 -300 -227 -304 q -214 -301 -218 -297 q -151 -324 -183 -324 q -136 -326 -144 -326 q 69 -115 -38 -326 l 247 235 l 244 236 q 190 148 233 217 q 80 -3 123 42 q 42 -20 60 -24 q -26 38 -1 -3 q -50 107 -38 54 q 31 302 -50 187 q 72 359 41 317 q 137 450 113 412 q 153 484 151 471 q 156 496 152 490 q 168 494 159 500 q 218 456 190 479 q 232 404 240 438 q 216 374 232 395 l 85 210 q 28 87 31 141 q 33 49 27 61 q 250 290 109 125 l 391 456 q 414 472 400 473 q 427 465 419 472 q 487 418 471 444 q 496 403 496 410 q 490 392 496 397 m 551 750 q 321 526 499 661 q 311 525 315 524 q 305 528 307 525 q 309 541 302 530 q 494 814 406 692 q 513 818 499 829 q 548 785 540 796 q 551 750 563 772 z "},"":{"ha":818,"x_min":15,"x_max":865,"o":"m 861 564 q 854 510 865 544 q 780 411 836 453 q 572 301 680 335 q 317 255 416 252 q 266 315 293 251 l 237 271 q 121 9 121 94 q 125 -13 121 1 q 129 -31 129 -27 q 127 -41 130 -38 q 110 -39 125 -46 q 54 73 57 -18 q 53 92 53 83 q 156 343 53 191 l 313 575 q 106 514 195 548 l 132 505 q 137 499 137 502 q 129 494 137 495 q 92 490 107 490 q 18 568 27 490 q 15 579 15 574 q 45 610 15 598 q 395 694 189 671 q 553 921 500 849 q 582 986 581 958 q 594 1000 583 1000 q 605 997 600 1000 q 674 890 666 964 q 640 819 674 854 q 552 705 595 762 l 552 705 q 861 564 852 705 m 821 555 q 818 564 823 560 q 609 610 770 610 q 473 602 548 610 q 308 376 385 484 l 332 377 q 342 372 342 377 q 335 359 343 368 l 305 335 q 697 431 543 332 q 821 555 788 490 z "},"":{"ha":450,"x_min":-232,"x_max":487,"o":"m 414 582 q 362 536 414 538 q 313 582 315 533 q 370 627 317 623 q 414 582 414 625 m 277 582 q 225 536 277 538 q 176 582 178 533 q 232 627 180 623 q 277 582 277 625 m 481 391 q 458 370 468 381 q 251 50 361 260 l 127 -186 q -100 -387 20 -392 q -227 -313 -171 -384 q -232 -304 -232 -308 q -231 -300 -232 -301 q -222 -301 -228 -297 q -159 -324 -193 -324 q -144 -326 -152 -326 q 60 -115 -47 -326 l 239 235 l 236 236 q 180 148 233 233 q 72 -3 113 41 q 34 -20 52 -24 q -35 38 -9 -3 q -58 107 -46 56 q -31 209 -60 145 q 22 302 -7 263 q 127 450 76 376 q 145 484 141 469 l 145 490 q 148 496 145 495 q 159 494 149 500 q 209 456 190 473 q 225 422 225 444 q 206 374 225 399 l 76 210 q 20 87 26 148 q 24 49 18 61 q 118 149 62 88 q 240 290 148 182 l 381 456 q 404 472 392 473 q 418 465 410 472 q 477 418 461 444 q 487 403 487 410 q 481 391 487 396 z "},"":{"ha":1299,"x_min":-31,"x_max":1363,"o":"m 1360 606 q 1343 585 1363 586 q 1236 593 1275 591 q 1218 600 1219 591 q 1217 602 1217 601 q 1225 608 1217 605 q 1283 624 1261 620 q 1130 636 1234 639 q 825 582 968 632 q 1200 552 1139 552 l 1213 552 q 1219 555 1215 555 q 1229 545 1225 555 q 1246 483 1244 513 q 1232 458 1253 461 q 1139 439 1225 457 q 796 328 1002 411 q 518 88 551 231 q 635 56 548 58 q 654 54 640 56 l 673 54 q 987 127 815 54 q 1268 294 1143 194 q 1287 305 1283 307 q 1289 292 1291 304 q 1251 222 1282 254 q 989 33 1141 110 q 680 -52 821 -53 q 481 88 514 -49 q 477 100 479 94 q 193 -41 321 -41 q 76 -4 127 -41 q -31 217 -31 72 q 57 479 -31 343 q 357 754 167 648 q 528 812 433 796 q 544 815 536 815 q 587 800 568 815 q 661 699 639 760 q 663 689 663 693 q 642 674 663 675 q 601 671 606 673 q 696 500 697 651 q 659 353 696 434 q 864 452 746 407 q 1084 521 1016 510 q 792 529 891 528 q 749 545 754 529 q 724 617 724 595 q 754 656 724 639 q 1078 739 849 713 q 1313 749 1175 750 q 1340 730 1335 751 l 1354 631 q 1360 606 1360 614 m 632 563 q 601 635 631 621 q 548 643 583 643 q 349 557 456 643 q 209 420 273 496 q 187 406 197 406 q 180 410 183 406 q 170 427 170 416 q 174 444 170 435 q 57 197 79 354 q 54 161 54 176 q 126 9 54 35 q 210 16 156 -1 q 292 54 233 23 q 574 376 479 190 q 632 563 633 492 z "},"":{"ha":608,"x_min":-69,"x_max":651,"o":"m 646 283 q 536 133 610 225 q 407 -4 449 26 q 370 -15 393 -14 q 292 16 331 -12 q 222 85 235 58 q 37 -15 134 -14 q -5 3 3 -11 q -66 106 -61 26 q -56 187 -69 138 q 41 363 -31 279 q 239 492 144 484 q 319 420 290 496 q 311 404 321 410 q 297 408 304 403 q 286 412 290 414 q 83 252 184 387 q 3 60 3 146 q 7 28 3 41 q 18 24 8 26 q 117 85 47 20 q 189 175 141 109 q 273 362 266 283 q 269 380 273 369 q 260 385 266 391 q 266 388 262 388 q 316 370 297 389 q 499 500 392 457 q 513 495 503 502 q 582 414 555 467 q 597 399 587 411 q 597 372 604 389 q 541 292 585 339 q 423 222 477 222 q 363 264 397 225 q 288 99 293 178 q 320 33 283 41 q 408 75 350 31 q 522 174 446 103 q 629 292 538 193 q 646 300 637 301 q 650 292 651 297 q 646 283 650 288 m 540 389 q 372 273 425 349 q 396 264 381 264 q 445 281 420 264 q 540 389 491 312 z "},"":{"ha":936,"x_min":-33,"x_max":1029,"o":"m 993 910 q 945 848 993 887 q 787 757 879 792 q 760 761 780 751 q 544 926 567 848 q 548 936 544 933 q 559 928 553 937 q 787 807 617 861 q 982 913 898 838 q 989 916 985 917 q 993 910 993 916 m 1021 678 q 1019 578 1029 636 q 989 538 1021 540 q 869 552 898 547 q 860 559 860 556 q 865 564 860 563 q 940 581 892 571 q 833 600 921 593 q 745 602 817 600 q 483 576 662 605 l 483 575 q 842 496 682 572 q 962 328 960 441 q 925 197 963 270 q 829 84 887 123 q 671 -22 784 31 q 491 -83 576 -66 q 324 -98 429 -95 q 98 -47 189 -102 q -26 141 -8 15 q 8 251 -33 193 q 92 334 41 298 q 445 433 224 425 q 624 407 533 435 q 779 316 730 374 q 783 300 787 307 q 762 298 777 292 q 453 355 662 363 q 164 297 254 347 q 65 241 109 278 q 7 148 9 195 q 130 26 11 69 q 315 -7 214 -4 q 540 27 414 -9 q 751 113 656 60 q 932 316 918 205 q 716 476 911 414 q 433 514 618 507 q 407 513 418 513 q 343 543 353 513 q 335 581 335 562 q 376 643 335 628 q 876 715 521 715 q 970 713 928 715 q 1021 678 1013 719 z "},"":{"ha":849,"x_min":-397,"x_max":998,"o":"m 924 834 q 905 789 924 808 q 861 770 887 770 q 817 789 836 770 q 799 834 799 808 q 817 878 799 860 q 861 897 836 897 q 905 878 887 897 q 924 834 924 860 m 726 834 q 707 789 726 808 q 663 770 689 770 q 618 789 636 770 q 600 834 600 807 q 618 879 600 861 q 663 897 636 897 q 707 878 689 897 q 726 834 726 860 m 991 637 q 998 625 998 633 q 987 605 998 617 q 693 202 779 361 l 543 -79 q 792 -278 789 -138 q 720 -355 783 -350 q 704 -347 707 -357 q 703 -343 703 -346 q 704 -335 703 -339 q 704 -323 707 -332 q 513 -129 678 -179 q 83 -572 349 -446 q -151 -635 -33 -627 q -387 -498 -327 -646 q -397 -437 -397 -471 q -274 -208 -397 -324 q 221 -31 -100 -43 q 433 -47 323 -27 l 650 335 q 647 336 648 336 l 374 18 q 307 -15 346 -15 q 241 28 278 -19 q 203 110 205 76 q 236 231 201 156 q 521 575 311 387 q 595 665 586 633 l 598 670 l 590 669 q 174 362 418 640 l 209 362 q 217 358 217 363 q 212 346 220 351 l 138 313 q 129 312 134 312 q 96 330 114 312 q 53 396 61 376 q 49 407 49 403 q 62 431 49 418 q 572 724 305 670 q 614 704 589 727 l 632 681 q 647 636 648 669 q 581 503 646 587 q 480 384 530 444 l 458 358 q 335 197 377 260 q 293 68 286 103 q 677 434 490 217 q 873 677 817 595 q 906 701 887 701 q 920 697 913 701 q 991 637 967 667 m 406 -104 q 248 -88 336 -88 q -43 -138 84 -88 q -203 -227 -125 -170 q -358 -467 -365 -342 q -216 -568 -351 -574 q -1 -515 -107 -564 q 406 -104 244 -403 z "},"":{"ha":362,"x_min":-94,"x_max":392,"o":"m 389 391 q 382 382 392 388 q 231 334 264 340 q 216 330 222 330 q 209 334 212 330 q 214 345 205 336 l 298 399 q 98 319 151 357 q 266 195 241 273 q 267 175 267 184 q 236 88 267 132 q 46 -15 163 -12 q -76 35 -39 -18 q -91 95 -88 72 q -61 142 -94 117 q -47 148 -54 148 q -33 138 -38 148 q -45 119 -31 132 q -61 85 -61 100 q -60 77 -61 81 q -5 68 -41 66 q 221 191 127 73 q 103 267 228 210 q 49 324 58 288 q 38 368 38 346 q 50 404 38 391 q 321 519 114 463 q 330 522 326 522 q 343 515 336 522 q 380 427 374 475 q 389 391 392 406 z "},"":{"ha":372,"x_min":35,"x_max":420,"o":"m 420 518 q 418 509 420 510 q 408 517 412 507 q 212 643 358 586 q 45 533 117 610 q 38 529 42 529 q 35 534 37 530 q 76 601 35 559 q 212 696 132 658 q 236 690 218 700 q 420 518 401 601 z "},"":{"ha":1321,"x_min":0,"x_max":0,"o":""},"":{"ha":510,"x_min":172,"x_max":491,"o":"m 491 553 q 484 548 490 548 q 472 551 477 545 q 450 566 463 563 q 369 547 434 568 q 263 522 300 524 q 202 556 228 521 q 174 623 180 585 q 176 629 172 628 q 185 624 180 631 q 193 616 190 617 q 201 613 195 614 q 273 613 229 605 q 416 625 368 631 q 491 553 491 616 z "},"":{"ha":578,"x_min":27,"x_max":519,"o":"m 518 321 q 509 320 517 319 q 492 320 502 321 q 155 281 391 305 l 137 279 q 62 297 94 277 q 28 363 27 321 q 47 372 30 378 q 216 350 71 351 q 469 353 377 347 q 514 332 496 354 q 518 321 519 326 z "},"":{"ha":761,"x_min":18,"x_max":743,"o":"m 742 321 q 728 320 739 319 q 703 320 718 321 q 205 281 553 305 l 179 279 q 80 293 125 277 q 20 363 18 316 q 49 372 22 378 q 294 350 84 351 q 670 353 528 349 q 735 332 709 354 q 742 321 743 326 z "},"":{"ha":145,"x_min":46,"x_max":175,"o":"m 53 567 q 159 694 79 633 q 171 696 167 699 q 172 686 175 694 q 110 537 149 636 q 95 530 107 526 q 61 544 83 534 q 53 567 46 551 z "},"":{"ha":241,"x_min":118,"x_max":245,"o":"m 241 640 q 134 513 214 571 q 122 510 126 507 q 122 521 118 511 q 184 670 148 579 q 199 677 186 680 q 233 663 212 673 q 241 640 245 658 z "},"":{"ha":202,"x_min":9,"x_max":205,"o":"m 193 81 q 28 -69 142 -11 q 18 -71 22 -72 q 14 -68 15 -71 q 16 -53 9 -64 q 136 149 100 85 q 144 157 138 157 q 155 153 148 157 q 190 118 183 129 q 193 81 205 103 z "},"":{"ha":145,"x_min":22,"x_max":118,"o":"m 24 449 q 102 302 34 376 q 114 297 109 296 q 115 308 118 298 q 87 467 110 334 q 73 477 87 477 q 41 472 43 472 q 24 449 22 467 z "},"":{"ha":218,"x_min":46,"x_max":296,"o":"m 53 567 q 159 694 79 633 q 171 696 167 699 q 172 686 175 694 q 110 537 149 636 q 95 530 107 526 q 61 544 83 534 q 53 567 46 551 m 172 589 q 279 716 198 656 q 292 718 288 720 q 292 708 296 716 q 229 559 271 665 q 214 551 228 548 q 180 566 205 555 q 172 589 168 571 z "},"":{"ha":361,"x_min":118,"x_max":368,"o":"m 361 662 q 254 534 335 593 q 241 532 245 529 q 241 543 237 533 q 304 692 267 601 q 319 699 305 701 q 361 662 368 682 m 241 640 q 134 513 214 571 q 122 510 126 507 q 122 521 118 511 q 184 670 148 579 q 199 677 186 680 q 233 663 212 673 q 241 640 245 658 z "},"":{"ha":338,"x_min":-8,"x_max":324,"o":"m 312 39 q 148 -111 262 -53 q 137 -113 141 -114 q 133 -110 134 -111 q 136 -95 129 -106 q 255 107 220 43 q 263 115 258 115 q 274 111 267 115 q 309 76 302 87 q 312 39 324 61 m 175 47 q 11 -103 125 -45 q 0 -104 4 -106 q -4 -102 -3 -104 q -1 -87 -8 -99 q 117 114 94 71 q 127 123 119 123 q 137 119 132 123 q 172 84 164 95 q 175 47 187 69 z "},"":{"ha":347,"x_min":7,"x_max":308,"o":"m 308 505 l 184 505 l 184 65 l 132 65 l 132 505 l 7 505 l 7 552 l 132 552 l 132 789 l 184 789 l 184 552 l 308 552 l 308 505 z "},"":{"ha":347,"x_min":8,"x_max":308,"o":"m 308 271 l 184 271 l 184 60 l 132 60 l 132 271 l 8 271 l 8 317 l 132 317 l 132 503 l 8 503 l 8 549 l 132 549 l 132 784 l 184 784 l 184 549 l 308 549 l 308 503 l 184 503 l 184 317 l 308 317 l 308 271 z "},"":{"ha":502,"x_min":57,"x_max":403,"o":"m 403 473 q 353 352 403 401 q 231 302 302 302 q 108 352 159 302 q 57 473 57 401 q 108 595 57 545 q 231 646 159 646 q 353 595 302 646 q 403 473 403 545 z "},"":{"ha":403,"x_min":-100,"x_max":388,"o":"m 388 39 q 319 -23 388 -19 q 254 39 255 -27 q 328 99 258 94 q 388 39 388 98 m 210 39 q 141 -23 210 -19 q 76 39 77 -27 q 152 99 81 94 q 210 39 210 98 m 34 39 q -35 -23 34 -19 q -100 39 -99 -27 q -26 99 -96 94 q 34 39 34 98 z "},"":{"ha":860,"x_min":-3,"x_max":867,"o":"m 860 208 q 810 85 867 160 q 628 -35 711 -45 q 595 -22 605 -33 q 548 52 553 -5 q 557 117 545 79 q 694 297 590 218 q 784 332 738 330 q 846 281 826 335 q 841 269 849 273 q 831 272 837 269 q 821 274 825 275 q 644 132 723 254 q 617 81 629 107 q 605 -3 591 26 q 613 -7 606 -5 q 689 38 636 -9 q 798 189 762 104 q 811 239 808 214 q 802 255 810 240 q 806 256 803 256 q 860 208 860 259 m 312 560 q 262 437 319 511 q 80 317 163 308 q 47 330 57 320 q 0 404 5 347 q 9 469 -3 431 q 148 650 41 570 q 237 685 191 682 q 298 633 278 688 q 293 621 301 625 q 283 624 288 620 q 274 627 279 628 q 117 513 193 608 q 71 434 90 477 q 57 350 45 378 q 65 346 58 347 q 142 391 90 343 q 263 591 251 488 q 254 608 264 605 q 258 609 255 609 q 312 560 312 612 m 519 591 q 494 541 521 570 q 190 133 327 331 q 113 -43 111 19 q 117 -69 113 -58 l 119 -75 q 117 -79 118 -77 q 104 -79 115 -83 q 68 1 68 -64 q 144 194 60 65 q 435 612 262 374 q 457 659 454 637 q 473 667 458 673 q 519 591 517 643 m 553 208 q 503 85 560 160 q 321 -35 404 -45 q 289 -22 298 -33 q 241 52 247 -5 q 251 117 239 77 q 388 297 282 218 q 477 332 431 330 q 540 281 519 335 q 533 269 543 273 q 524 272 529 269 q 514 274 519 275 q 358 160 434 256 q 311 83 330 123 q 298 -3 285 26 q 307 -7 300 -5 q 445 110 355 -14 q 505 239 498 182 q 495 255 503 240 q 499 256 495 256 q 553 208 553 259 z "},"":{"ha":290,"x_min":18,"x_max":262,"o":"m 262 591 q 251 583 262 586 q 68 401 170 548 q 113 184 65 286 q 113 176 115 180 q 107 175 111 174 q 61 237 85 180 q 20 416 27 317 q 31 441 18 426 q 254 600 171 601 q 262 591 260 597 z "},"":{"ha":290,"x_min":18,"x_max":236,"o":"m 235 412 q 225 387 236 404 q 26 201 110 210 q 18 208 19 202 q 27 216 18 212 q 184 420 103 262 q 113 631 172 536 q 110 637 109 633 q 117 640 111 642 q 171 585 140 637 q 235 412 212 514 z "},"":{"ha":411,"x_min":-9,"x_max":418,"o":"m 416 321 q 408 320 415 319 q 393 320 403 321 q 100 281 305 305 l 85 279 q 18 299 45 275 q -8 363 -9 323 q 8 372 -8 378 q 153 350 30 351 q 374 353 290 349 q 412 332 397 354 q 416 321 418 326 z "},"":{"ha":488,"x_min":111,"x_max":391,"o":"m 391 595 q 350 496 391 537 q 251 456 309 456 q 152 496 193 456 q 111 595 111 537 q 152 694 111 654 q 251 735 193 735 q 350 694 309 735 q 391 595 391 654 m 285 646 q 271 673 285 673 q 258 646 258 673 q 271 609 258 609 q 285 646 285 609 m 229 646 q 216 673 229 673 q 202 646 202 673 q 216 609 202 609 q 229 646 229 609 m 350 581 q 312 536 350 552 q 250 522 282 522 q 187 536 217 522 q 149 581 149 552 q 184 528 149 552 q 250 505 220 505 q 315 528 279 505 q 350 581 350 552 z "},"":{"ha":420,"x_min":0,"x_max":0,"o":""},"":{"ha":537,"x_min":-3,"x_max":587,"o":"m 587 624 q 575 601 587 613 q 439 492 486 541 l 429 483 q 422 483 425 479 q 425 496 418 486 q 522 637 492 604 l 521 639 q 251 434 389 617 q 330 437 308 435 q 362 416 351 438 q 366 406 368 408 q 359 403 365 401 q 346 403 354 404 l 212 381 q 168 301 197 357 q 293 305 233 301 q 323 286 313 307 q 327 278 328 281 q 320 277 324 277 q 309 278 316 278 l 148 252 q 121 127 121 182 q 129 76 121 95 q 194 49 148 46 q 429 202 290 53 q 505 301 456 231 q 510 308 507 308 q 515 306 513 308 q 517 285 518 304 q 487 184 511 232 q 250 -22 387 -7 q 117 53 164 -31 q 71 176 75 94 q 73 243 69 206 q 22 260 42 239 q 4 313 3 282 q 16 320 4 326 q 85 304 28 308 q 106 365 94 334 q 79 361 87 361 q 14 385 37 355 q -1 449 -3 416 q 11 457 -1 464 q 137 434 33 434 l 140 434 q 304 642 205 552 q 505 755 418 745 q 536 736 517 762 q 571 675 560 704 q 572 661 575 666 q 587 624 587 633 z "}}}
